<?xml version="1.0" encoding="utf-8"?>
<svg viewBox="7475.173 -368.697 6624.827 3800" width="6624.827" height="3800" xmlns="http://www.w3.org/2000/svg" xmlns:bx="https://boxy-svg.com">
  <defs>
    <clipPath id="clipPath182" clipPathUnits="userSpaceOnUse">
      <path id="path-5" d="M 7196.71,9543.8 H 6968.7 v -999.5 h 228.01 z"/>
    </clipPath>
    <clipPath id="clipPath198" clipPathUnits="userSpaceOnUse">
      <path id="path-6" d="M 7762.89,9598.4 H 7534.87 V 8544.3 h 228.02 z"/>
    </clipPath>
  </defs>
  <g transform="matrix(0.568209, 0, 0, -0.568209, 4876.009076, 3900.329977)" id="g18" style="" bx:origin="0.58 0.45">
    <path id="path20" style="fill:#dde8fd;fill-opacity:1;fill-rule:nonzero;stroke:none" d="m 15453.8,870.248 -1897.3,-13.104 -2419.6,9.076 -5409.42,20.195 c 0,0 -775.99,646.605 -757.15,1773.255 12.03,719.86 172.41,2239.56 1853.24,2594.79 1576.47,333.18 1157.33,2452.57 3481.73,2244.3 917.2,-82.18 1324.1,-897.8 2032.9,-680.52 2995.5,918.2 3653.1,-991.19 3878.6,-2844.74 83.2,-683.87 -141.5,-2811.88 -763,-3103.252"/>
  </g>
  <g transform="matrix(0.332548, 0, 0, -0.332548, 6339.446801, 3876.515919)" id="g30" style="">
    <path id="path32" style="fill:#bed2fa;fill-opacity:1;fill-rule:nonzero;stroke:none" d="m 16255.1,10184.7 c 0,12.4 10,22.4 22.5,22.4 12.3,0 22.4,-10 22.4,-22.4 0,-12.4 -10.1,-22.5 -22.4,-22.5 -12.5,0 -22.5,10.1 -22.5,22.5"/>
  </g>
  <g transform="matrix(0.339261, 0, 0, -0.339261, 6339.446801, 3876.515919)" id="g38" style="">
    <path id="path40" style="fill:#bed2fa;fill-opacity:1;fill-rule:nonzero;stroke:none" d="m 16263,9831.36 c 10.2,6.59 23.8,3.66 30.4,-6.56 6.6,-10.19 3.7,-23.81 -6.6,-30.4 -10.2,-6.58 -23.7,-3.64 -30.4,6.57 -6.5,10.2 -3.6,23.81 6.6,30.39"/>
  </g>
  <g transform="matrix(0.340514, 0, 0, -0.340514, 6339.446801, 3876.515919)" id="g42" style="">
    <path id="path44" style="fill:#bed2fa;fill-opacity:1;fill-rule:nonzero;stroke:none" d="m 16278.1,9608.88 c 12.1,0 21.9,-9.81 21.9,-21.9 0,-12.11 -9.8,-21.91 -21.9,-21.91 -12.1,0 -21.9,9.8 -21.9,21.91 0,12.09 9.8,21.9 21.9,21.9"/>
  </g>
  <g transform="matrix(0.339437, 0, 0, -0.339437, 6339.446801, 3876.515919)" id="g46" style="">
    <path id="path48" style="fill:#bed2fa;fill-opacity:1;fill-rule:nonzero;stroke:none" d="m 16291.4,9422.59 c 8.6,-8.58 8.6,-22.5 0,-31.08 -8.6,-8.58 -22.5,-8.58 -31.1,0 -8.6,8.58 -8.6,22.5 0,31.08 8.6,8.59 22.5,8.59 31.1,0"/>
  </g>
  <g transform="matrix(0.33656, 0, 0, -0.33656, 6339.446801, 3876.515919)" id="g50" style="">
    <path id="path52" style="fill:#bed2fa;fill-opacity:1;fill-rule:nonzero;stroke:none" d="m 16291.4,9363.53 c 8.6,-8.66 8.6,-22.69 0,-31.35 -8.7,-8.66 -22.8,-8.66 -31.4,0 -8.6,8.66 -8.6,22.69 0,31.35 8.6,8.65 22.7,8.65 31.4,0"/>
  </g>
  <g transform="matrix(0.332548, 0, 0, -0.332548, 6339.446801, 3876.515919)" id="g54" style="">
    <path id="path56" style="fill:#bed2fa;fill-opacity:1;fill-rule:nonzero;stroke:none" d="m 16255.1,9403.71 c 0,12.39 10,22.43 22.5,22.43 12.3,0 22.4,-10.04 22.4,-22.43 0,-12.39 -10.1,-22.44 -22.4,-22.44 -12.5,0 -22.5,10.05 -22.5,22.44"/>
  </g>
  <g transform="matrix(0.328964, 0, 0, -0.328964, 6339.446801, 3876.515919)" id="g58" style="">
    <path id="path60" style="fill:#bed2fa;fill-opacity:1;fill-rule:nonzero;stroke:none" d="m 16293.9,10263.6 c -6.1,11 -19.9,14.9 -30.8,8.8 -11,-6 -15,-19.9 -8.9,-30.8 6.1,-11 20,-14.9 30.9,-8.8 11,6.1 14.9,19.9 8.8,30.8"/>
  </g>
  <g transform="matrix(0.32595, 0, 0, -0.32595, 6339.446801, 3876.515919)" id="g62" style="">
    <path id="path64" style="fill:#bed2fa;fill-opacity:1;fill-rule:nonzero;stroke:none" d="m 16286.3,10232.8 c -10.6,6.9 -24.8,3.8 -31.6,-6.8 -6.9,-10.6 -3.8,-24.8 6.8,-31.7 10.6,-6.8 24.8,-3.8 31.6,6.9 6.9,10.6 3.8,24.8 -6.8,31.6"/>
  </g>
  <g transform="matrix(0.324568, 0, 0, -0.324568, 6339.446801, 3876.515919)" id="g66" style="">
    <path id="path68" style="fill:#bed2fa;fill-opacity:1;fill-rule:nonzero;stroke:none" d="m 16277,10081 c -12.7,0 -23,-10.3 -23,-23 0,-12.7 10.3,-23 23,-23 12.7,0 23,10.3 23,23 0,12.7 -10.3,23 -23,23"/>
  </g>
  <g transform="matrix(0.325736, 0, 0, -0.325736, 6339.446801, 3876.515919)" id="g70" style="">
    <path id="path72" style="fill:#bed2fa;fill-opacity:1;fill-rule:nonzero;stroke:none" d="m 16258.7,9818.94 c -9,-8.95 -9,-23.46 0,-32.4 8.9,-8.94 23.4,-8.94 32.4,0 8.9,8.94 8.9,23.45 0,32.4 -9,8.94 -23.5,8.94 -32.4,0"/>
  </g>
  <g transform="matrix(0.332882, 0, 0, -0.332882, 6339.446801, 3876.515919)" id="g78" style="">
    <path id="path80" style="fill:#bed2fa;fill-opacity:1;fill-rule:nonzero;stroke:none" d="m 16255.2,9806.81 c 0,12.37 10,22.41 22.4,22.41 12.4,0 22.4,-10.04 22.4,-22.41 0,-12.38 -10,-22.41 -22.4,-22.41 -12.4,0 -22.4,10.03 -22.4,22.41"/>
  </g>
  <g transform="matrix(0.332488, 0, 0, -0.332488, 6339.446801, 3876.515919)" id="g82" style="">
    <path id="path84" style="fill:#bed2fa;fill-opacity:1;fill-rule:nonzero;stroke:none" d="m 16300,9818.47 h -6.1 v 280.33 h 6.1 v -280.33"/>
  </g>
  <g transform="matrix(0.335515, 0, 0, -0.335515, 6339.446801, 3876.515919)" id="g86" style="">
    <path id="path88" style="fill:#bed2fa;fill-opacity:1;fill-rule:nonzero;stroke:none" d="m 16152.7,9723.08 -11.3,14.33 147.3,115.6 11.3,-14.32 -147.3,-115.61"/>
  </g>
  <path id="path90" style="fill: rgb(109, 137, 207); fill-opacity: 1; fill-rule: nonzero; stroke: none;" d="M 72302.254 -3865.776 C 72302.254 -3865.776 71829.618 -3314.163 72273.049 -2963.903 C 72273.049 -2963.903 72596.983 -2767.896 72861.272 -2783.733 C 72861.272 -2783.733 72486.948 -3411.446 72608.09 -3473.971 C 72729.025 -3536.289 72974.598 -2744.45 72974.598 -2744.45 C 72974.598 -2744.45 73711.934 -2672.875 73949.075 -2787.024 C 73949.075 -2787.024 73318.894 -3302.645 73451.553 -3333.496 C 73584.211 -3364.141 74264.987 -2857.981 74264.987 -2857.981 C 74264.987 -2857.981 74951.317 -2974.597 74914.707 -3393.142 C 74878.098 -3811.89 74641.574 -3941.053 74537.71 -3929.946 C 74433.845 -3918.84 73825.877 -3686.841 73812.714 -3771.99 C 73799.345 -3857.138 74165.443 -4135.413 74421.505 -4148.371 C 74421.505 -4148.371 73937.763 -4681.885 73616.297 -4527.836 C 73294.83 -4373.994 73267.27 -4129.86 73066.945 -4038.335 C 72866.414 -3946.812 72695.501 -3947.017 72778.181 -4040.392 C 72860.861 -4133.768 73223.668 -4224.47 73338.227 -4427.057 C 73452.787 -4629.85 73555.623 -4766.623 73223.051 -4716.644 C 72890.478 -4666.46 72349.764 -4423.149 72325.907 -4144.463 C 72302.254 -3865.776 72302.254 -3865.776 72302.254 -3865.776" transform="matrix(0.133333, 0, 0, -0.133333, 13.317872, 1512.026033)"/>
  <path id="path92" style="fill: rgb(109, 137, 207); fill-opacity: 1; fill-rule: nonzero; stroke: none;" d="M 74577.404 -3404.453 C 74577.404 -3404.453 72713.805 -3332.673 72302.254 -3865.776 C 72302.254 -3865.776 72211.141 -4138.292 71931.221 -4386.54 L 71887.412 -4505.418 C 71887.412 -4505.418 72210.319 -4165.03 72325.907 -4144.463 C 72325.907 -4144.463 72145.327 -3484.048 74577.404 -3404.453" transform="matrix(0.133333, 0, 0, -0.133333, 13.317872, 1512.026033)"/>
  <path id="path94" style="fill: rgb(109, 137, 207); fill-opacity: 1; fill-rule: nonzero; stroke: none;" d="M 67431.221 -4847.812 C 67431.221 -4847.812 67031.188 -5143.569 67003.217 -5672.353 L 67075.819 -5678.729 C 67075.819 -5678.729 67203.747 -5132.257 67434.511 -4918.357 C 67665.482 -4704.664 67431.221 -4847.812 67431.221 -4847.812" transform="matrix(0.133333, 0, 0, -0.133333, 13.317872, 1512.026033)"/>
  <path id="path96" style="fill: rgb(109, 137, 207); fill-opacity: 1; fill-rule: nonzero; stroke: none;" d="M 66149.675 -3633.521 C 66149.675 -3633.521 66901.614 -3212.304 66550.531 -2640.945 C 66550.531 -2640.945 66269.994 -2290.068 65969.095 -2199.777 C 65969.095 -2199.777 66129.519 -3052.085 65969.095 -3072.034 C 65808.67 -3092.191 65858.854 -2109.693 65858.854 -2109.693 C 65858.854 -2109.693 65066.809 -1728.581 64756.038 -1758.815 C 64756.038 -1758.815 65247.389 -2590.761 65086.965 -2570.81 C 64926.54 -2550.655 64375.133 -1708.631 64375.133 -1708.631 C 64375.133 -1708.631 63563.137 -1558.284 63432.741 -2039.352 C 63302.343 -2520.626 63512.953 -2761.263 63633.271 -2791.291 C 63753.59 -2821.319 64525.479 -2811.447 64505.529 -2911.61 C 64485.373 -3011.979 63963.993 -3172.403 63673.377 -3082.113 C 63673.377 -3082.113 63994.226 -3874.157 64415.239 -3834.051 C 64836.25 -3793.945 64966.646 -3533.152 65227.233 -3513.202 C 65488.027 -3493.046 65678.479 -3563.386 65548.083 -3633.521 C 65417.687 -3703.655 64976.724 -3656.556 64766.116 -3835.491 C 64555.507 -4014.426 64385.21 -4124.667 64776.194 -4204.879 C 65167.177 -4285.092 65868.932 -4234.908 66009.201 -3934.214 C 66149.675 -3633.521 66149.675 -3633.521 66149.675 -3633.521" transform="matrix(0.133333, 0, 0, -0.133333, 13.317872, 1512.026033)"/>
  <path id="path98" style="fill: rgb(109, 137, 207); fill-opacity: 1; fill-rule: nonzero; stroke: none;" d="M 63803.774 -2189.905 C 63803.774 -2189.905 65909.038 -2871.503 66149.675 -3633.521 C 66149.675 -3633.521 66139.597 -3974.32 66350.206 -4365.304 L 66350.206 -4515.65 C 66350.206 -4515.65 66129.519 -4004.348 66009.201 -3934.214 C 66009.201 -3934.214 66480.397 -3272.566 63803.774 -2189.905" transform="matrix(0.133333, 0, 0, -0.133333, 13.317872, 1512.026033)"/>
  <path id="path100" style="fill: rgb(109, 137, 207); fill-opacity: 1; fill-rule: nonzero; stroke: none;" d="M 66350.206 -4365.304 C 66350.206 -4365.304 66674.757 -4858.301 66489.652 -5458.453 L 66406.149 -5436.035 C 66406.149 -5436.035 66487.185 -4775.004 66317.298 -4442.637 C 66147.412 -4110.064 66350.206 -4365.304 66350.206 -4365.304" transform="matrix(0.133333, 0, 0, -0.133333, 13.317872, 1512.026033)"/>
  <path id="path102" style="fill: rgb(190, 210, 250); fill-opacity: 1; fill-rule: nonzero; stroke: none;" d="M 71845.867 -2591.429 C 71845.867 -2591.429 70854.73 -2036.525 71317.288 -1283.145 C 71317.288 -1283.145 71687.293 -820.588 72083.624 -701.71 C 72083.624 -701.71 71872.193 -1825.093 72083.624 -1851.42 C 72295.056 -1877.951 72229.035 -582.83 72229.035 -582.83 C 72229.035 -582.83 73273.029 -80.578 73682.729 -120.273 C 73682.729 -120.273 73035.272 -1217.125 73246.703 -1190.593 C 73458.135 -1164.267 74184.982 -54.252 74184.982 -54.252 C 74184.982 -54.252 75255.302 144.016 75427.243 -490.278 C 75598.98 -1124.572 75321.528 -1441.72 75162.955 -1481.415 C 75004.175 -1521.109 73986.713 -1507.74 74013.039 -1639.988 C 74039.57 -1772.235 74726.723 -1983.667 75110.097 -1864.582 C 75110.097 -1864.582 74687.028 -2908.577 74132.123 -2855.718 C 73577.013 -2802.86 73405.277 -2459.387 73061.597 -2432.855 C 72718.125 -2406.53 72466.998 -2499.082 72638.735 -2591.429 C 72810.472 -2683.982 73391.907 -2621.869 73669.565 -2857.775 C 73947.018 -3093.682 74171.818 -3239.092 73656.403 -3344.808 C 73140.987 -3450.523 72215.872 -3384.503 72030.767 -2987.966 C 71845.867 -2591.429 71845.867 -2591.429 71845.867 -2591.429" transform="matrix(0.133333, 0, 0, -0.133333, 13.317872, 1512.026033)"/>
  <path id="path104" style="fill: rgb(190, 210, 250); fill-opacity: 1; fill-rule: nonzero; stroke: none;" d="M 74938.154 -688.547 C 74938.154 -688.547 72163.014 -1587.13 71845.867 -2591.429 C 71845.867 -2591.429 71859.03 -3040.823 71581.578 -3556.24 L 71581.578 -3754.508 C 71581.578 -3754.508 71872.193 -3080.518 72030.767 -2987.966 C 72030.767 -2987.966 71409.635 -2115.708 74938.154 -688.547" transform="matrix(0.133333, 0, 0, -0.133333, 13.317872, 1512.026033)"/>
  <path id="path106" style="fill: rgb(190, 210, 250); fill-opacity: 1; fill-rule: nonzero; stroke: none;" d="M 67081.578 -4017.512 C 67081.578 -4017.512 66653.573 -4667.437 66897.501 -5458.453 L 67007.536 -5429.042 C 67007.536 -5429.042 66900.792 -4557.608 67124.768 -4119.319 C 67348.541 -3681.031 67081.578 -4017.512 67081.578 -4017.512" transform="matrix(0.133333, 0, 0, -0.133333, 13.317872, 1512.026033)"/>
  <path id="path108" style="fill: rgb(147, 179, 244); fill-opacity: 1; fill-rule: nonzero; stroke: none;" d="M 71812.343 -6712.902 C 72884.719 -6712.902 73753.891 -5843.525 73753.891 -4771.353 L 69870.999 -4771.353 C 69870.999 -5843.525 70740.172 -6712.902 71812.343 -6712.902" transform="matrix(0.133333, 0, 0, -0.133333, 13.317872, 1512.026033)"/>
  <path id="path110" style="fill: rgb(147, 179, 244); fill-opacity: 1; fill-rule: nonzero; stroke: none;" d="M 73780.835 -6811.625 L 69844.056 -6811.625 L 69844.056 -6811.625 C 69844.056 -6679.378 69951.417 -6572.222 70083.664 -6572.222 L 73541.226 -6572.222 C 73673.474 -6572.222 73780.835 -6679.378 73780.835 -6811.625 L 73780.835 -6811.625" transform="matrix(0.133333, 0, 0, -0.133333, 13.317872, 1512.026033)"/>
  <path id="path112" style="fill: rgb(119, 145, 210); fill-opacity: 1; fill-rule: nonzero; stroke: none;" d="M 73798.111 -4830.793 L 69807.034 -4830.793 L 69807.034 -4771.353 L 73798.111 -4771.353 L 73798.111 -4830.793" transform="matrix(0.133333, 0, 0, -0.133333, 13.317872, 1512.026033)"/>
  <path id="path114" style="fill: rgb(109, 137, 207); fill-opacity: 1; fill-rule: nonzero; stroke: none;" d="M 74186.832 -6930.092 L 74186.832 -7116.432 C 74186.832 -7181.63 74165.854 -7234.899 74139.938 -7234.899 L 67340.815 -7234.899 C 67315.106 -7234.899 67293.921 -7181.63 67293.921 -7116.432 L 67293.921 -6930.092 C 67293.921 -6865.1 67315.106 -6811.625 67340.815 -6811.625 L 74139.938 -6811.625 C 74165.854 -6811.625 74186.832 -6865.1 74186.832 -6930.092" transform="matrix(0.133333, 0, 0, -0.133333, 13.317872, 1512.026033)"/>
  <path id="path116" style="fill: rgb(192, 211, 250); fill-opacity: 1; fill-rule: nonzero; stroke: none;" d="M 74186.832 -6930.092 L 74186.832 -7116.432 C 74186.832 -7181.63 74167.5 -7234.899 74143.847 -7234.899 L 68745.97 -7234.899 C 68722.317 -7234.899 68702.984 -7181.63 68702.984 -7116.432 L 68702.984 -6930.092 C 68702.984 -6865.1 68722.317 -6811.625 68745.97 -6811.625 L 74143.847 -6811.625 C 74167.5 -6811.625 74186.832 -6865.1 74186.832 -6930.092" transform="matrix(0.133333, 0, 0, -0.133333, 13.317872, 1512.026033)"/>
  <path id="path118" style="fill-opacity: 1; fill-rule: nonzero; stroke: none; fill: rgb(112, 154, 240);" d="M 71630.154 -14087.079 L 66803.224 -14087.079 L 66803.224 -7051.637 L 71630.154 -7051.637 L 71630.154 -14087.079" transform="matrix(0.133333, 0, 0, -0.133333, 13.317872, 1512.026033)"/>
  <path id="path120" style="fill-opacity: 1; fill-rule: nonzero; stroke: none; fill: rgb(146, 172, 232);" d="M 73818.678 -14270.547 L 68991.748 -14270.547 L 68991.748 -7235.105 L 73818.678 -7235.105 L 73818.678 -14270.547" transform="matrix(0.133333, 0, 0, -0.133333, 13.317872, 1512.026033)"/>
  <path id="path122" style="fill: rgb(190, 210, 250); fill-opacity: 1; fill-rule: nonzero; stroke: none;" d="M 69297.584 -13835.756 L 73512.844 -13835.756 L 73512.844 -7480.266 L 69297.584 -7480.266 Z M 73559.325 -13882.237 L 69251.102 -13882.237 L 69251.102 -7433.785 L 73559.325 -7433.785 L 73559.325 -13882.237" transform="matrix(0.133333, 0, 0, -0.133333, 13.317872, 1512.026033)"/>
  <path id="path124" style="fill: rgb(190, 210, 250); fill-opacity: 1; fill-rule: nonzero; stroke: none;" d="M 73536.084 -9613.503 L 69274.342 -9613.503 L 69274.342 -9567.021 L 73536.084 -9567.021 L 73536.084 -9613.503" transform="matrix(0.133333, 0, 0, -0.133333, 13.317872, 1512.026033)"/>
  <path id="path126" style="fill-opacity: 1; fill-rule: nonzero; stroke: none; fill: rgb(255, 255, 255);" d="M 73536.084 -11788.284 L 69274.342 -11788.284 L 69274.342 -11741.803 L 73536.084 -11741.803 L 73536.084 -11788.284" transform="matrix(0.133333, 0, 0, -0.133333, 13.317872, 1512.026033)"/>
  <path id="path128" style="fill: rgb(190, 210, 250); fill-opacity: 1; fill-rule: nonzero; stroke: none;" d="M 67341.959 -8310.926 L 66551.148 -8310.926 C 66512.688 -8310.926 66481.425 -8279.458 66481.425 -8241.203 L 66481.425 -8241.203 C 66481.425 -8202.743 66512.688 -8171.275 66551.148 -8171.275 L 67341.959 -8171.275 C 67380.42 -8171.275 67411.682 -8202.743 67411.682 -8241.203 L 67411.682 -8241.203 C 67411.682 -8279.458 67380.42 -8310.926 67341.959 -8310.926" transform="matrix(0.133333, 0, 0, -0.133333, 13.317872, 1512.026033)"/>
  <path id="path130" style="fill: rgb(190, 210, 250); fill-opacity: 1; fill-rule: nonzero; stroke: none;" d="M 67341.959 -10437.581 L 66551.148 -10437.581 C 66512.688 -10437.581 66481.425 -10406.113 66481.425 -10367.858 L 66481.425 -10367.858 C 66481.425 -10329.397 66512.688 -10298.135 66551.148 -10298.135 L 67341.959 -10298.135 C 67380.42 -10298.135 67411.682 -10329.397 67411.682 -10367.858 L 67411.682 -10367.858 C 67411.682 -10406.113 67380.42 -10437.581 67341.959 -10437.581" transform="matrix(0.133333, 0, 0, -0.133333, 13.317872, 1512.026033)"/>
  <path id="path132" style="fill: rgb(190, 210, 250); fill-opacity: 1; fill-rule: nonzero; stroke: none;" d="M 67341.959 -12654.525 L 66551.148 -12654.525 C 66512.688 -12654.525 66481.425 -12623.058 66481.425 -12584.803 L 66481.425 -12584.803 C 66481.425 -12546.342 66512.688 -12514.875 66551.148 -12514.875 L 67341.959 -12514.875 C 67380.42 -12514.875 67411.682 -12546.342 67411.682 -12584.803 L 67411.682 -12584.803 C 67411.682 -12623.058 67380.42 -12654.525 67341.959 -12654.525" transform="matrix(0.133333, 0, 0, -0.133333, 13.317872, 1512.026033)"/>
  <path id="path134" style="fill: rgb(147, 179, 244); fill-opacity: 1; fill-rule: nonzero; stroke: none;" d="M 64208.126 -6308.087 L 64208.126 -7285.649 L 63222.542 -7285.649 L 63222.542 -6305.002 C 63222.542 -6295.541 63222.955 -6286.08 63223.983 -6276.824 C 63234.266 -6164.527 63306.457 -6070.33 63405.797 -6028.167 C 63476.754 -5998.138 63526.527 -5933.146 63530.641 -5856.224 L 63537.839 -5715.133 L 63899.617 -5715.133 L 63901.879 -5856.018 C 63903.319 -5932.529 63951.858 -5998.55 64022.61 -6028.372 C 64122.567 -6070.535 64195.169 -6164.734 64206.48 -6276.824 C 64207.508 -6287.109 64208.126 -6297.598 64208.126 -6308.087" transform="matrix(0.133333, 0, 0, -0.133333, 13.317872, 1512.026033)"/>
  <path id="path136" style="fill: rgb(190, 210, 250); fill-opacity: 1; fill-rule: nonzero; stroke: none;" d="M 63925.532 -5777.041 L 63503.286 -5777.041 L 63514.598 -5666.799 L 63914.22 -5666.799 L 63925.532 -5777.041" transform="matrix(0.133333, 0, 0, -0.133333, 13.317872, 1512.026033)"/>
  <path id="path138" style="fill: rgb(255, 255, 255); fill-opacity: 1; fill-rule: nonzero; stroke: none;" d="M 64208.126 -6308.087 L 64208.126 -6938.473 L 63222.542 -6938.473 L 63222.542 -6305.002 C 63222.542 -6295.541 63222.955 -6286.08 63223.983 -6276.824 L 64206.48 -6276.824 C 64207.508 -6287.109 64208.126 -6297.598 64208.126 -6308.087" transform="matrix(0.133333, 0, 0, -0.133333, 13.317872, 1512.026033)"/>
  <path id="path140" style="fill: rgb(147, 179, 244); fill-opacity: 1; fill-rule: nonzero; stroke: none;" d="M 65017.859 -6738.765 L 65017.859 -7285.649 L 64466.451 -7285.649 L 64466.451 -6737.119 C 64466.451 -6731.772 64466.656 -6726.63 64467.273 -6721.283 C 64473.033 -6658.553 64513.344 -6605.901 64569.081 -6582.249 C 64608.776 -6565.383 64636.542 -6529.185 64638.804 -6486.199 L 64642.918 -6407.222 L 64845.3 -6407.222 L 64846.534 -6485.994 C 64847.357 -6528.773 64874.505 -6565.795 64913.994 -6582.249 C 64969.938 -6605.901 65010.455 -6658.758 65016.83 -6721.283 C 65017.448 -6727.041 65017.859 -6733.007 65017.859 -6738.765" transform="matrix(0.133333, 0, 0, -0.133333, 13.317872, 1512.026033)"/>
  <path id="path142" style="fill: rgb(190, 210, 250); fill-opacity: 1; fill-rule: nonzero; stroke: none;" d="M 64859.696 -6441.774 L 64623.585 -6441.774 L 64629.754 -6380.073 L 64853.527 -6380.073 L 64859.696 -6441.774" transform="matrix(0.133333, 0, 0, -0.133333, 13.317872, 1512.026033)"/>
  <path id="path144" style="fill: rgb(255, 255, 255); fill-opacity: 1; fill-rule: nonzero; stroke: none;" d="M 65017.859 -6738.765 L 65017.859 -7091.494 L 64466.451 -7091.494 L 64466.451 -6737.119 C 64466.451 -6731.772 64466.656 -6726.63 64467.273 -6721.283 L 65016.83 -6721.283 C 65017.448 -6727.041 65017.859 -6733.007 65017.859 -6738.765" transform="matrix(0.133333, 0, 0, -0.133333, 13.317872, 1512.026033)"/>
  <g transform="matrix(0.461768, 0, 0, -0.461768, 5911.472408, 3867.382327)" id="g146" style="">
    <path id="path148" style="fill:#bed2fa;fill-opacity:1;fill-rule:nonzero;stroke:none" d="M 16300,962.247 H 13039.5 V 6922.29 H 16300 V 962.247"/>
  </g>
  <g transform="matrix(0.457827, 0, 0, -0.457827, 5911.472408, 3867.382327)" id="g150" style="">
    <path id="path152" style="fill-opacity: 1; fill-rule: nonzero; stroke: none; fill: rgb(236, 242, 254);" d="M 16300,970.532 H 13296.2 V 6876.31 H 16300 V 970.532"/>
  </g>
  <g transform="matrix(0.450974, 0, 0, -0.450974, 5911.472408, 3867.382327)" id="g154" style="">
    <path id="path156" style="fill-opacity: 1; fill-rule: nonzero; stroke: none; fill: rgb(75, 130, 241);" d="m 16030.4,4024 c 0,74.49 60.4,134.81 134.8,134.81 74.5,0 134.8,-60.32 134.8,-134.81 0,-74.43 -60.3,-134.76 -134.8,-134.76 -74.4,0 -134.8,60.33 -134.8,134.76"/>
  </g>
  <g transform="matrix(0.433177, 0, 0, -0.433177, 5911.472408, 3867.382327)" id="g158" style="">
    <path id="path160" style="fill:#ffffff;fill-opacity:1;fill-rule:nonzero;stroke:none" d="m 16300,5907.96 h -1310.5 v 413.71 H 16300 v -413.71"/>
  </g>
  <g transform="matrix(0.426713, 0, 0, -0.426713, 5911.472408, 3867.382327)" id="g162" style="">
    <path id="path164" style="fill:#dde8fd;fill-opacity:1;fill-rule:nonzero;stroke:none" d="m 16300,6244.04 h -836.5 v 43.19 h 836.5 v -43.19"/>
  </g>
  <g transform="matrix(0.42365, 0, 0, -0.42365, 5911.472408, 3867.382327)" id="g166" style="">
    <path id="path168" style="fill:#dde8fd;fill-opacity:1;fill-rule:nonzero;stroke:none" d="m 16300,6172 h -606.7 v 43.5 H 16300 V 6172"/>
  </g>
  <g transform="matrix(0.433593, 0, 0, -0.433593, 5911.472408, 3867.382327)" id="g170" style="">
    <path id="path172" style="fill:#c0d3fa;fill-opacity:1;fill-rule:nonzero;stroke:none" d="m 14990.8,5918.03 h 1277.8 v 381.88 H 14990.8 Z M 16300,5886.59 H 14959.4 V 6331.3 H 16300 v -444.71"/>
  </g>
  <g transform="matrix(0.39703, 0, 0, -0.39703, 6339.446801, 3876.515919)" id="g174" style="">
    <path id="path176" style="fill:#1c1860;fill-opacity:1;fill-rule:nonzero;stroke:none" d="m 15425.4,7375.99 c -118.7,61.58 -213.8,22.88 -213.8,22.88 -363.2,42.64 -469.1,-380.89 -464.2,-526.6 4.9,-145.74 21.5,-302.32 -140.7,-491.64 -468.5,-546.83 512.8,-571 512.8,-571 8.2,437.01 532,277.52 509.1,233.25 671.4,-161.14 66.7,1193.08 -203.2,1333.11"/>
  </g>
  <g transform="matrix(0.341606, 0, 0, -0.341606, 6339.446801, 3876.515919)" id="g178" style="">
    <path id="path180" style="fill:#fc9290;fill-opacity:1;fill-rule:nonzero;stroke:none" d="m 16300,6455.63 c 0,0 -74.3,113.03 -134.1,115.2 -59.8,2.25 -170.6,33.24 -161.7,11.08 8.8,-22.16 77.5,-24.33 84.2,-37.65 6.6,-13.33 -102,-33.24 -132.9,-35.48 -31.1,-2.17 -104.2,0 -102,-15.49 2.2,-15.5 131.8,-79.72 223.2,-70.89 91.4,8.83 204.4,-26.57 204.4,-26.57 l 18.9,59.8"/>
  </g>
  <g transform="matrix(0.364101, 0, 0, -0.364101, 6339.446801, 3876.515919)" id="g182" style="">
    <path id="path184" style="fill:#fa7269;fill-opacity:1;fill-rule:nonzero;stroke:none" d="m 16300,6022.49 c 0,0 -37.8,-75.02 -106.5,-161.1 -82.8,-103.64 -210.4,-223.4 -370.6,-247.04 -76.5,-11.3 -151.3,5.19 -220.1,35.69 -0.2,0.08 -0.2,0.08 -0.2,0.08 -194.7,86.39 -340.9,285 -340.9,285 -34.4,93.54 21.7,156.96 21.7,156.96 0,0 393,-88.35 430.4,-69.59 37.4,18.68 255.7,647.5 307.7,726.5 51.9,79.01 229.1,120.06 229.1,120.06 l 49.4,-846.56"/>
  </g>
  <g transform="matrix(0.362195, 0, 0, -0.362195, 6339.446801, 3876.515919)" id="g186" style="">
    <path id="path188" style="fill:#e75755;fill-opacity:1;fill-rule:nonzero;stroke:none" d="m 16278.7,5892.23 c -83.2,-104.18 -211.4,-224.57 -372.5,-248.34 -76.9,-11.36 -152.2,5.22 -221.3,35.89 7.7,-0.98 203,-25.14 280.8,114.17 79.5,142.12 165.4,367.82 283.3,292.64 51,-32.48 48.7,-113.19 29.7,-194.36"/>
  </g>
  <g transform="matrix(0.399523, 0, 0, -0.399523, 6339.446801, 3876.515919)" id="g190" style="">
    <path id="path192" style="fill:#232065;fill-opacity:1;fill-rule:nonzero;stroke:none" d="m 16190.8,1623.39 c 0,0 109.2,-99.73 87.9,-170.57 -21.3,-70.83 -119.9,-118.06 -133.2,-204.68 -13.4,-86.56 -66.7,-133.78 -114.6,-133.78 -48,0 -228.7,0 -228.7,0 0,0 -35.3,60.95 49.9,79.28 85.3,18.39 117.5,120.12 112.2,214.57 -5.4,94.51 7.9,220.4 7.9,220.4 l 181.3,42.01 37.3,-47.23"/>
  </g>
  <g transform="matrix(0.375141, 0, 0, -0.375141, 6339.446801, 3876.515919)" id="g194" style="">
    <path id="path196" style="fill:#232065;fill-opacity:1;fill-rule:nonzero;stroke:none" d="m 16258.2,1683.8 c 0,0 41.8,-449.87 -9.2,-475.01 l -653.8,1.39 c 0,0 0,75.44 105,92.18 105,16.81 289.5,78.29 320.7,215.2 31.2,136.92 237.3,166.24 237.3,166.24"/>
  </g>
  <g transform="matrix(0.386612, 0, 0, -0.386612, 6339.446801, 3876.515919)" id="g198" style="">
    <path id="path200" style="fill:#fc9290;fill-opacity:1;fill-rule:nonzero;stroke:none" d="m 16227.9,4765.46 c -130.6,292.81 -210.5,376.79 -195.2,467.66 11.3,67.67 -34.6,1260.95 -34.6,1260.95 -15.4,4.82 -46.5,9.15 -63.5,12.91 -53.5,11.91 -97.9,49.51 -116.3,101.14 -22.2,62.21 -39.9,154.14 -39.4,269.26 l -16.8,-3.33 -281.1,-55.61 c 0,0 6.3,-88.52 6.5,-171.87 0,-0.71 0,-1.42 0,-2.06 0.4,-72.42 -47.1,-136.33 -116.7,-156.4 -35.5,-10.21 -66.4,-19.01 -66.4,-19.01 0,0 -103.2,-294.79 -123,-597.6 -19.6,-302.81 187.8,-434.38 -1.6,-1039.5 -193.2,-618.03 1120.2,-228.26 1048.1,-66.54"/>
  </g>
  <g transform="matrix(0.373855, 0, 0, -0.373855, 6339.446801, 3876.515919)" id="g202" style="">
    <path id="path204" style="fill:#ed6966;fill-opacity:1;fill-rule:nonzero;stroke:none" d="m 16009.2,7051.11 c 0,0 6.6,-91.54 6.9,-177.73 162.6,4.55 248.6,153.01 283.9,235.24 l -290.8,-57.51"/>
  </g>
  <g transform="matrix(0.375923, 0, 0, -0.375923, 6339.446801, 3876.515919)" id="g206" style="">
    <path id="path208" style="fill:#fc9290;fill-opacity:1;fill-rule:nonzero;stroke:none" d="m 15867.1,6931.11 c 0,0 382.8,-6.35 383.1,232.12 0.2,238.49 49.8,398.29 -194.6,412.4 -244.4,14.12 -292.1,-76.82 -311.5,-156.4 -19.4,-79.58 23.4,-480.39 123,-488.12"/>
  </g>
  <g transform="matrix(0.377714, 0, 0, -0.377714, 6339.446801, 3876.515919)" id="g210" style="">
    <path id="path212" style="fill:#1c1860;fill-opacity:1;fill-rule:nonzero;stroke:none" d="m 15806,7545.58 c 0,0 104.3,-278.45 264.4,-319.63 160.2,-41.17 229.6,1.74 229.6,1.74 0,0 -122.8,97.55 -148.3,267.85 0,0 -267,182.58 -345.7,50.04"/>
  </g>
  <g transform="matrix(0.366865, 0, 0, -0.366865, 6339.446801, 3876.515919)" id="g214" style="">
    <path id="path216" style="fill:#1c1860;fill-opacity:1;fill-rule:nonzero;stroke:none" d="m 16300,7745.43 c 0,0 -79.6,-29.78 -112.4,-87.87 -32,-56.8 -59.4,-132.04 -53,-224.37 0,0 -81,194.89 10,305.13 96.4,116.88 155.4,7.11 155.4,7.11"/>
  </g>
  <g transform="matrix(0.36786, 0, 0, -0.36786, 6339.446801, 3876.515919)" id="g218" style="">
    <path id="path220" style="fill:#ffffff;fill-opacity:1;fill-rule:nonzero;stroke:none" d="m 16300,7234.22 c 0,0 -27,-35.56 -81,-32.95 -43.5,2.02 -60.3,39.74 -60.3,39.74 0,0 79.9,19.23 141.3,-6.79"/>
  </g>
  <g transform="matrix(0.383697, 0, 0, -0.383697, 6339.446801, 3876.515919)" id="g222" style="">
    <path id="path224" style="fill:#fa7269;fill-opacity:1;fill-rule:nonzero;stroke:none" d="m 16300,6011.58 c 0,0 -1.4,-177.96 -10.9,-339.06 -6.4,-106.85 -16.2,-206.33 -31.5,-241.71 -38.5,-88.77 -81.9,-103.2 -81.9,-103.2 l -335.5,-82.27 -118,-28.87 -372.2,111.14 c 0,0 -169.5,473.06 -101.4,739.36 68,266.36 172,451.26 172,451.26 0,0 303.6,-297.32 699,25.23 l 180.4,-531.88"/>
  </g>
  <g transform="matrix(0.383442, 0, 0, -0.383442, 6339.446801, 3876.515919)" id="g226" style="">
    <path id="path228" style="fill:#e75755;fill-opacity:1;fill-rule:nonzero;stroke:none" d="m 16300,5676.33 c -6.4,-106.92 -16.2,-206.48 -31.5,-241.88 -38.5,-88.82 -81.9,-103.27 -81.9,-103.27 l -335.8,-82.32 -145.9,42.91 c 0,0 486.9,73.74 433,492.7 l 162.1,-108.14"/>
  </g>
  <g transform="matrix(0.377834, 0, 0, -0.377834, 6339.446801, 3876.515919)" id="g230" style="">
    <path id="path232" style="fill:#a83f3f;fill-opacity:1;fill-rule:nonzero;stroke:none" d="m 15612.3,5337.36 c 0,0 -187.1,-582.53 -199.1,-780.81 -12.1,-198.36 357.7,-2817.4 372.6,-2908.77 14,-86.16 121,-141.03 121,-141.03 0,0 49.2,-29.03 119.4,-9.21 97.4,27.5 128.1,60.45 128.1,60.45 0,0 145.7,1867.91 55.6,2535.14 -90.2,667.22 -91.2,1244.23 -91.2,1244.23 h -506.4"/>
  </g>
  <g transform="matrix(0.395931, 0, 0, -0.395931, 6339.446801, 3876.515919)" id="g234" style="">
    <path id="path236" style="fill:#ba6767;fill-opacity:1;fill-rule:nonzero;stroke:none" d="m 15655.3,5109.95 c 0,0 272.5,-365.5 297.8,-612.55 25.5,-247.13 39.9,-1114.99 94,-1355.88 54.1,-240.89 252.9,-704.46 252.9,-1455.75 0,0 -20.6,-43.01 -84.4,-66.01 -20.5,-7.34 -47.8,-14.4 -74.3,-20.5 -52.7,-12.05 -106.6,13.65 -130.7,61.99 -134.3,270.61 -562.5,1143.38 -584.4,1324.5 -15.5,128.2 -150.7,976.73 -445.6,1474.66 -70.8,119.54 43.5,594.89 43.5,594.89 l 631.2,54.65"/>
  </g>
  <g transform="matrix(0.381229, 0, 0, -0.381229, 6339.446801, 3876.515919)" id="g238" style="">
    <path id="path240" style="fill:#232065;fill-opacity:1;fill-rule:nonzero;stroke:none" d="m 15443.6,5378.95 c 0,0 74.5,-58.91 222.5,-61.86 176.6,-3.53 614.4,45.03 614.4,45.03 0,0 19.5,-54.31 18.7,-111.71 0,0 -534.7,-134.88 -844.6,-19.71 0,0 -39.9,75.17 -11,148.25"/>
  </g>
  <g transform="matrix(0.367296, 0, 0, -0.367296, 6339.446801, 3876.515919)" id="g242" style="">
    <path id="path244" style="fill:#ffffff;fill-opacity:1;fill-rule:nonzero;stroke:none" d="m 16216.3,5522.46 c -30.8,0 -55.9,-30.09 -55.9,-66.98 0,-36.95 25.1,-66.97 55.9,-66.97 30.8,0 56,30.02 56,66.97 0,36.89 -25.2,66.98 -56,66.98 z m 0,-161.72 c -46.1,0 -83.7,42.48 -83.7,94.74 0,52.19 37.6,94.67 83.7,94.67 46.1,0 83.7,-42.48 83.7,-94.67 0,-52.26 -37.6,-94.74 -83.7,-94.74"/>
  </g>
  <g transform="matrix(0.396759, 0, 0, -0.396759, 6339.446801, 3876.515919)" id="g246" style="">
    <path id="path248" style="fill:#1c1860;fill-opacity:1;fill-rule:nonzero;stroke:none" d="m 16300,4222.67 -808.5,-174.32 -97.7,453.14 808.5,174.31 97.7,-453.13"/>
  </g>
  <g transform="matrix(0.394381, 0, 0, -0.394381, 6339.446801, 3876.515919)" id="g250" style="">
    <path id="path252" style="fill:#3662c1;fill-opacity:1;fill-rule:nonzero;stroke:none" d="m 15486.7,4528.64 c 0,0 227.3,-190.45 480,-124.19 252.8,66.27 333.3,299.56 333.3,299.56 l -813.3,-175.37"/>
  </g>
  <g transform="matrix(0.378547, 0, 0, -0.378547, 6339.446801, 3876.515919)" id="g254" style="">
    <path id="path256" style="fill:#3662c1;fill-opacity:1;fill-rule:nonzero;stroke:none" d="m 16252.9,4780.58 c -17.3,0 -31.4,-14.06 -31.4,-31.45 0,-17.31 14.1,-31.36 31.4,-31.36 17.3,0 31.5,14.05 31.5,31.36 0,17.39 -14.2,31.45 -31.5,31.45 z m 0,-78.46 c -25.9,0 -47.1,21.08 -47.1,47.01 0,26.01 21.2,47.09 47.1,47.09 25.9,0 47.1,-21.08 47.1,-47.09 0,-25.93 -21.2,-47.01 -47.1,-47.01"/>
  </g>
  <g transform="matrix(0.397601, 0, 0, -0.397601, 6339.446801, 3876.515919)" id="g258" style="">
    <path id="path260" style="fill:#fc9290;fill-opacity:1;fill-rule:nonzero;stroke:none" d="m 16130.8,4464.86 c 0,0 0.4,-65.59 12.8,-97.18 12.4,-31.59 49.7,-73.8 62.1,-73.8 12.4,0 -11.4,65.87 -5.2,64.56 6.3,-1.31 36.3,-109.6 58,-112.22 21.8,-2.62 41.5,121.46 30.1,170.22 -11.4,48.7 -60.6,107.18 -60.6,107.18 l -97.2,-58.76"/>
  </g>
  <g transform="matrix(0.396227, 0, 0, -0.396227, 6339.446801, 3876.515919)" id="g262" style="">
    <path id="path264" style="fill:#fa7269;fill-opacity:1;fill-rule:nonzero;stroke:none" d="m 15609.9,6336.48 c 0,0 200.9,-27.2 309.1,-240.3 83.6,-164.65 140.9,-682.62 199.9,-845.68 56.5,-156.07 134.3,-457.75 177.7,-699.5 3.4,-18.76 -6.9,-37.24 -24.6,-44.3 l -73.9,-29.28 c -16,-6.29 -34.2,-0.2 -42.9,14.54 -65.7,110.25 -324.6,551.74 -414.5,807.2 -105,298.64 -301.7,484.05 -301.7,484.05 l 170.9,553.27"/>
  </g>
  <g transform="matrix(0.379976, 0, 0, -0.379976, 6339.446801, 3876.515919)" id="g266" style="">
    <path id="path268" style="fill:#0b0754;fill-opacity:1;fill-rule:nonzero;stroke:none" d="m 16176.3,4767.64 c -0.5,7.72 -49.2,777.92 -39.9,1210.94 4.9,227.34 40,387.55 68.6,481.88 31.2,102.92 77.8,145.06 79.1,147.08 l 15.9,-4.69 c -1.2,-1.95 -130.5,-196.45 -139.7,-624.78 -9.3,-432.01 39.4,-1201.19 39.9,-1208.92 l -23.9,-1.51"/>
  </g>
  <g transform="matrix(0.292636, 0, 0, -0.292636, 6339.446801, 3876.515919)" id="g270" style="">
    <path id="path272" style="fill:#232065;fill-opacity:1;fill-rule:nonzero;stroke:none" d="m 15783.1,1552.59 h 516.9 c -3.8,27.08 -17.1,109.54 -41.2,185.54 -8.5,26.43 -18.2,52.11 -29.4,74.41 -50.2,100.36 -369.5,36.54 -369.5,36.54 0,0 -29.7,-25.39 -52.8,-122.47 -10.2,-42.74 -19.3,-99.43 -24,-174.02"/>
  </g>
  <g transform="matrix(0.320575, 0, 0, -0.320575, 6339.446801, 3876.515919)" id="g274" style="">
    <path id="path276" style="fill:#93b3f4;fill-opacity:1;fill-rule:nonzero;stroke:none" d="m 15273.7,8624.36 c 0,0 376.1,-66.02 461,-287.92 85.1,-221.9 565.3,-3806.58 565.3,-3806.58 0,0 -237.8,-188.46 -748.2,-120.79 -510.5,67.66 -278.1,4215.29 -278.1,4215.29"/>
  </g>
  <g transform="matrix(0.330395, 0, 0, -0.330395, 6339.446801, 3876.515919)" id="g278" style="">
    <path id="path280" style="fill:#232065;fill-opacity:1;fill-rule:nonzero;stroke:none" d="m 15362.8,1519.66 c 1.3,-62.33 9.1,-121.26 31.7,-144.5 h 905.5 c -11.5,32.78 -44.1,82 -137,97.11 -105.7,17.09 -270.4,67.97 -366.5,169.57 -34.3,36.1 -59.7,78.76 -70.9,128.48 -42.6,189.74 -352.3,-58.1 -352.3,-58.1 0,0 -12.5,-99.85 -10.5,-192.56"/>
  </g>
  <g transform="matrix(0.320729, 0, 0, -0.320729, 6339.446801, 3876.515919)" id="g282" style="">
    <path id="path284" style="fill:#9e332e;fill-opacity:1;fill-rule:nonzero;stroke:none" d="m 16227.6,1660.46 c -104.2,-33.26 -303.5,-134.76 -430.1,-87.05 -81.7,30.87 -539,1353.42 -568.7,1931.93 -2.1,42.07 -10.4,100.72 -23.3,172.29 -27.1,149.29 -74.5,354.4 -129,580.82 -146.3,606.55 -344.3,1365.38 -340,1607.95 6.7,376.47 1121.9,78.92 1121.9,78.92 0,0 76.7,-308.83 92,-755.92 30.2,-887.43 113.5,-2386.46 340,-3427.45 9.6,-44.12 -19.6,-87.73 -62.8,-101.49"/>
  </g>
  <g transform="matrix(0.304072, 0, 0, -0.304072, 6339.446801, 3876.515919)" id="g286" style="">
    <path id="path288" style="fill:#ab4e49;fill-opacity:1;fill-rule:nonzero;stroke:none" d="m 16300,6186.39 -621.8,-4506.95 c 0,0 -273.1,-65.92 -485.5,-13.26 0,0 -182.1,2397.05 -166.9,2976.58 15.2,579.45 -130.6,1550.57 33.3,1657.71 163.9,107.05 1240.9,-114.08 1240.9,-114.08"/>
  </g>
  <g transform="matrix(0.313848, 0, 0, -0.313848, 6339.446801, 3876.515919)" id="g290" style="">
    <path id="path292" style="fill:#ffffff;fill-opacity:1;fill-rule:nonzero;stroke:none" d="m 14513.8,8609.12 c 0,0 633.2,409.44 1087.3,200.07 72.4,-33.36 154.9,-126.5 214,-191.59 164.2,-180.87 484.9,-3054.25 484.9,-3054.25 0,0 -910.5,-308.35 -1786.2,104.67 v 2941.1"/>
  </g>
  <g transform="matrix(0.322204, 0, 0, -0.322204, 6339.446801, 3876.515919)" id="g294" style="">
    <path id="path296" style="fill:#bed2fa;fill-opacity:1;fill-rule:nonzero;stroke:none" d="m 15231.7,8590.87 c 0,0 624.4,-255.88 708.9,-452.49 84.6,-196.6 359.4,-1403.9 359.4,-1545.44 0,-141.62 -478.6,-31.66 -555.6,196.69 -63.9,189.54 -279.8,772.04 -393.6,1140.49 l -119.1,660.75"/>
  </g>
  <g transform="matrix(0.301242, 0, 0, -0.301242, 6339.446801, 3876.515919)" id="g298" style="">
    <path id="path300" style="fill:#fc9290;fill-opacity:1;fill-rule:nonzero;stroke:none" d="m 16152.8,8980.13 c -145.7,-28.58 -359.9,1.82 -516.7,105.23 70.8,169.05 99.8,302.54 110.1,388.92 0.6,4.6 1,9.05 1.5,13.35 4.7,44.77 4,75.16 1.8,89.09 h 377 c 0,0 103,-47.11 103,-79.67 0,-17.41 0.1,-34.07 0.4,-49.98 0.8,-43.34 2.6,-81.18 4.8,-113.67 7.1,-105.75 19.2,-155.57 19.2,-155.57 0,0 46.1,-168.84 -101.1,-197.7"/>
  </g>
  <g transform="matrix(0.300035, 0, 0, -0.300035, 6339.446801, 3876.515919)" id="g302" style="">
    <path id="path304" style="fill:#ea8888;fill-opacity:1;fill-rule:nonzero;stroke:none" d="m 16300,9370.92 c -286.7,-55.39 -453.2,101.27 -490.4,141.45 -5.3,5.76 -8.1,9.16 -8.1,9.16 3,1.52 6.2,2.88 9.5,4.24 106.8,43.22 349,8.86 484.2,-40.71 0.8,-43.52 2.5,-81.51 4.8,-114.14"/>
  </g>
  <g transform="matrix(0.302997, 0, 0, -0.302997, 6339.446801, 3876.515919)" id="g306" style="">
    <path id="path308" style="fill:#fc9290;fill-opacity:1;fill-rule:nonzero;stroke:none" d="m 15562.3,9582.86 c 50.8,-273.02 403,-264.06 555.2,-246.9 42.9,4.77 69.9,10.23 69.9,10.23 48.2,12.91 75.2,89 87.8,188.67 24.8,197.25 -6.6,486.84 -39.9,560.84 -50.2,111.4 -144.6,232 -499.3,145 -354.9,-87 -238.8,-308.04 -173.7,-657.84"/>
  </g>
  <g transform="matrix(0.305204, 0, 0, -0.305204, 6339.446801, 3876.515919)" id="g310" style="">
    <path id="path312" style="fill:#232065;fill-opacity:1;fill-rule:nonzero;stroke:none" d="m 16131,10173.9 c -48.2,66.6 -150.2,148.1 -242.9,198.2 -199.2,107.8 -454.1,-3.4 -455.1,-3.8 -287.7,-126.5 -362.8,-346.6 -210.3,-689.47 161.3,-362.55 314.8,-321.76 314.8,-321.76 0,0 -32.5,20.28 -29.6,133.27 0.1,6.43 0.4,11.8 0.7,16.41 1.5,23.16 -6.7,46.37 -24,61.83 -35.7,31.89 -53.1,128.34 -23.2,155.2 36.1,32.39 86.8,-6.95 103,-37.23 14.2,-21.36 39.5,-28.86 63.2,-13.92 89.5,56.6 31.3,169.82 116.9,239.07 85.6,69.27 259.2,11.11 387.5,66.31 168,62.59 35.3,145.69 -1,195.89"/>
  </g>
  <g transform="matrix(0.303002, 0, 0, -0.303002, 6339.446801, 3876.515919)" id="g314" style="">
    <path id="path316" style="fill:#bed2fa;fill-opacity:1;fill-rule:nonzero;stroke:none" d="m 16288.6,4513.9 c -57.1,-14.75 -113.6,-26.79 -169.8,-36.02 -49.7,-8.51 -99.2,-14.84 -148.7,-19.01 -280.6,-24.43 -562.6,15.03 -892.1,109.61 -74.2,21.26 -150.9,45.34 -230.4,72.13 -8.5,2.8 21.6,874.18 56.4,1772.98 3.5,92.76 7.2,185.89 10.8,278.39 1.6,39.19 3.1,78.1 4.6,117.02 31.6,794.9 62.9,1512.78 69.5,1551.42 15,87.43 29.1,162.01 44.5,226.63 44.9,188.34 100.6,291.6 222.2,380.39 11.8,8.95 109,58.01 194.7,100.65 71.1,35.3 134.2,66.1 134.2,66.1 0.1,0 0.1,0 0.1,0 28.2,-13.87 62.1,-78.61 97.7,-169.56 65.3,-167.52 135.7,-424.1 184.7,-615.7 0.1,-0.54 0.2,-0.9 0.2,-1 0,-0.09 0,-0.09 0,-0.09 31.6,-123.72 54.2,-220.1 60.6,-247.8 11,-46.61 25.5,-137.02 42.5,-259.56 23.1,-166.71 50.6,-393.06 79.8,-649.92 3,-26.33 6,-53.12 9,-80.09 3.4,-30.77 7,-61.9 10.4,-93.4 1.1,-10.14 2.2,-20.28 3.2,-30.41 11.4,-101.64 22.7,-206.62 33.9,-313.33 9.3,-88.24 143.1,-152.04 152.3,-241.73 5.4,-52.68 16.5,-538.69 30.8,-693.81 10.3,-110.77 3,-1171.85 -1.1,-1223.89"/>
  </g>
  <g transform="matrix(0.306806, 0, 0, -0.306806, 6339.446801, 3876.515919)" id="g318" style="">
    <path id="path320" style="fill:#93b3f4;fill-opacity:1;fill-rule:nonzero;stroke:none" d="m 15130.9,7940.31 c -0.5,-1.79 -22.5,-793.81 573.3,-890.07 595.8,-96.18 199.9,-121.65 199.9,-121.65 0,0 -1121,47.64 -1139.5,77.31 -18.5,29.59 366.3,934.41 366.3,934.41"/>
  </g>
  <g transform="matrix(0.294274, 0, 0, -0.294274, 6339.446801, 3876.515919)" id="g322" style="">
    <path id="path324" style="fill:#93b3f4;fill-opacity:1;fill-rule:nonzero;stroke:none" d="m 16300,6995.95 c 0,0 -11.6,-8.2 -34.1,-22.64 -0.4,-0.19 -0.8,-0.47 -1.1,-0.66 -94.8,-60.57 -376,-225.42 -785.5,-336.04 -43.1,-11.64 -87.5,-22.64 -133.3,-32.8 3.7,95.52 7.5,191.41 11.2,286.65 -54.1,4.2 -105.9,11.09 -153.9,21.25 1.5,12.58 3.2,25.16 4.9,37.74 52.1,21.34 103.8,42.03 153.8,61.5 40.6,15.94 80,31.03 117.3,45.11 168.2,63.83 292.9,107.16 292.9,107.16 l 497.9,-157.76 29.9,-9.51"/>
  </g>
  <g transform="matrix(0.296654, 0, 0, -0.296654, 6339.446801, 3876.515919)" id="g326" style="">
    <path id="path328" style="fill:#bed2fa;fill-opacity:1;fill-rule:nonzero;stroke:none" d="m 16300,6953.62 c 0,0 -63.5,-15.9 -164.5,-36.23 -0.4,0 -0.7,-0.09 -1.1,-0.19 -186.3,-37.44 -499.5,-89.94 -779.2,-87.17 -41.4,0.46 -81.9,2.13 -121.1,5.18 -53.7,4.16 -105.1,11 -152.8,21.07 -102.3,21.63 -187.9,58.15 -243.9,115.18 -416.2,423.94 227.1,1945.34 362.4,2093.34 157.9,172.86 446.1,233.51 605.2,254.32 6.6,0.85 13,1.69 19.2,2.45 55.9,6.67 91.8,8.04 93.8,8.12 0.1,0 0.1,0 0.1,0 0,0 -12.5,-40.11 -33.3,-108.2 -8.2,-26.25 -17.6,-56.85 -28,-90.87 -97.7,-320.13 -286.3,-949.28 -369.4,-1304.07 -30.5,-129.79 -46.7,-222.88 -39.3,-250.61 32.4,-121.19 368.6,-183.5 581.7,-211.04 88.8,-11.47 156.3,-16.92 171.4,-18.12 1.1,0 2,-0.09 3.1,-0.19 l 12.3,-50.56 29.5,-121.1 29,-119.07 24.9,-102.24"/>
  </g>
  <g transform="matrix(0.323054, 0, 0, -0.323054, 6339.446801, 3876.515919)" id="g330" style="">
    <path id="path332" style="fill:#232065;fill-opacity:1;fill-rule:nonzero;stroke:none" d="m 16033.7,5715.67 -1312.4,55.26 266.3,1635.68 1312.4,-55.27 -266.3,-1635.67"/>
  </g>
  <g transform="matrix(0.300822, 0, 0, -0.300822, 6339.446801, 3876.515919)" id="g334" style="">
    <path id="path336" style="fill:#fc9290;fill-opacity:1;fill-rule:nonzero;stroke:none" d="m 15979.8,7244.78 c 0,0 274.3,19.14 288.1,-44.85 32.1,-149.05 -235.9,-271.48 -322.7,-263.09 -86.8,8.3 -28.6,317.87 34.6,307.94"/>
  </g>
  <g transform="matrix(0.32281, 0, 0, -0.32281, 6339.446801, 3876.515919)" id="g338" style="">
    <path id="path340" style="fill:#fc9290;fill-opacity:1;fill-rule:nonzero;stroke:none" d="m 16240.6,7024.53 c 0,0 -244.6,76.45 -270.9,21.49 -61.2,-128.28 155.4,-296.99 235.8,-308.12 80.6,-11.13 94.5,282.04 35.1,286.63"/>
  </g>
  <g transform="matrix(0.294992, 0, 0, -0.294992, 6339.446801, 3876.515919)" id="g342" style="">
    <path id="path344" style="fill:#93b3f4;fill-opacity:1;fill-rule:nonzero;stroke:none" d="m 16036.7,9472.16 c 0,0 -117.7,-56.1 -176.7,-140.78 0,0 440,-763.93 438,-756.78 -1.9,7.16 -148.7,799.71 -261.3,897.56"/>
  </g>
  <g transform="matrix(0.303441, 0, 0, -0.303441, 6339.446801, 3876.515919)" id="g346" style="">
    <path id="path348" style="fill:#93b3f4;fill-opacity:1;fill-rule:nonzero;stroke:none" d="m 16123,9197.94 c 37.6,-14.21 109.9,-88.23 126.2,-129.16 l 50.8,-648.34 c 0,0 -108.5,475.82 -163.8,690.88 -14.1,54.67 -11.4,71.28 -13.2,86.62"/>
  </g>
  <g transform="matrix(0.316174, 0, 0, -0.316174, 6339.446801, 3876.515919)" id="g350" style="">
    <path id="path352" style="fill:#ab4e49;fill-opacity:1;fill-rule:nonzero;stroke:none" d="m 15758.3,7549.06 c 0,0 10.5,46.41 71.6,41.03 61.1,-5.38 404,-22.29 404,-22.29 0,0 66.1,1.13 60,-41.29 l -535.6,22.55"/>
  </g>
  <g transform="matrix(0.301582, 0, 0, -0.301582, 6339.446801, 3876.515919)" id="g354" style="">
    <path id="path356" style="fill:#ffffff;fill-opacity:1;fill-rule:nonzero;stroke:none" d="m 16108.4,9565.98 c 0,0 46.7,-42.53 121.9,-29.36 44.7,7.81 69.7,65.88 69.7,65.88 0,0 -85.8,15.44 -191.6,-36.52"/>
  </g>
  <g transform="matrix(0.571755, 0, 0, -0.571755, 4580.404448, 3924.365389)" id="g358" style="">
    <path id="path360" style="fill:#010117;fill-opacity:1;fill-rule:nonzero;stroke:none" d="M 16281.9,862.367 H 5164.63 c -9.94,0 -18.07,8.134 -18.07,18.059 v 0 c 0,9.924 8.13,18.059 18.07,18.059 H 16281.9 c 10,0 18.1,-8.135 18.1,-18.059 v 0 c 0,-9.925 -8.1,-18.059 -18.1,-18.059"/>
  </g>
  <path id="path-15" style="fill: rgb(224, 224, 224); fill-opacity: 1; fill-rule: nonzero; stroke: none;" d="M 61378.483 -9177.673 L 61233.108 -9177.673 L 61233.108 6073.349 L 61378.483 6073.349 L 61378.483 -9177.673" transform="matrix(0.133333, 0, 0, -0.133333, 13.317872, 1512.026033)"/>
  <path id="path-16" style="fill: rgb(224, 224, 224); fill-opacity: 1; fill-rule: nonzero; stroke: none;" d="M 63781.405 7554.975 L 61305.794 7554.975 L 61305.794 7952.5 L 63781.405 7952.5 L 63781.405 7554.975" transform="matrix(0.133333, 0, 0, -0.133333, 13.317872, 1512.026033)"/>
  <path id="path-17" style="fill: rgb(224, 224, 224); fill-opacity: 1; fill-rule: nonzero; stroke: none;" d="M 64817.454 6820.259 L 61305.794 6820.259 L 61305.794 7217.786 L 64817.454 7217.786 L 64817.454 6820.259" transform="matrix(0.133333, 0, 0, -0.133333, 13.317872, 1512.026033)"/>
  <path id="path-29" style="fill: rgb(224, 224, 224); fill-opacity: 1; fill-rule: nonzero; stroke: none;" d="M 58282.164 1725.621 L 57785.507 1725.621 L 57785.507 -1744.717 L 58282.164 -1744.717 L 58282.164 1725.621" transform="matrix(0.133333, 0, 0, -0.133333, 13.317872, 1512.026033)"/>
  <path id="path-30" style="fill: rgb(224, 224, 224); fill-opacity: 1; fill-rule: nonzero; stroke: none;" d="M 59515.429 1915.128 L 59018.751 1915.128 L 59018.751 -1744.717 L 59515.429 -1744.717 L 59515.429 1915.128" transform="matrix(0.133333, 0, 0, -0.133333, 13.317872, 1512.026033)"/>
  <g id="g176" transform="matrix(0.290429, 0, 0, -0.290429, 5694.137556, 4226.169755)" style="">
    <g clip-path="url(#clipPath182)" id="g-8">
      <path id="path190" style="fill-opacity: 1; fill-rule: nonzero; stroke: none; fill: rgb(173, 224, 255);" d="M 7196.71,9543.8 H 6968.7 v -999.5 h 228.01 v 999.5"/>
    </g>
  </g>
  <g id="g192" transform="matrix(0.290429, 0, 0, -0.290429, 5694.137556, 4226.169755)" style="">
    <g clip-path="url(#clipPath198)" id="g-9">
      <path id="path206" style="fill-opacity: 1; fill-rule: nonzero; stroke: none; fill: rgb(199, 255, 234);" d="M 7762.89,9598.4 H 7534.87 V 8544.3 h 228.02 v 1054.1"/>
    </g>
  </g>
  <path id="path718" style="fill: rgb(238, 168, 134); fill-opacity: 1; fill-rule: nonzero; stroke: none;" d="M 60804.172 -4283.868 C 60804.172 -4283.868 60489.529 -4440.047 60191.459 -4469.453 C 60191.459 -4469.453 59909.795 -4056.461 59744.99 -3747.371 C 59351.845 -3010.044 59235.788 -2664.797 59269.332 -2381.63 C 59329.582 -1872.579 60330.563 163.622 60330.563 163.622 L 61441.65 -265.271 L 60591.034 -1776.953 C 60511.638 -1931.827 60409.194 -2183.629 60303.356 -2388.381 C 60164.646 -2656.955 60331.63 -3271.213 60430.477 -3527.589 C 60430.477 -3527.589 60611.79 -4024.441 60804.172 -4283.868" transform="matrix(0.133333, 0, 0, -0.133333, 13.317872, 1512.026033)"/>
  <path id="path720" style="fill: rgb(53, 58, 61); fill-opacity: 1; fill-rule: nonzero; stroke: none;" d="M 57331.917 -12671.319 C 57331.917 -12671.319 57299.155 -12855.597 57426.669 -13101.736 C 57554.182 -13347.658 58125.441 -13974.768 58086.102 -14232.232 C 58046.784 -14489.917 57386.61 -14459.421 56972.074 -14006.134 C 56557.535 -13552.629 55941.841 -13081.915 55964.537 -12973.004 C 55987.256 -12864.093 56608.941 -12298.41 56825.088 -12223.262 C 57041.209 -12148.111 57331.917 -12671.319 57331.917 -12671.319" transform="matrix(0.133333, 0, 0, -0.133333, 13.317872, 1512.026033)"/>
  <path id="path722" style="fill: rgb(238, 168, 134); fill-opacity: 1; fill-rule: nonzero; stroke: none;" d="M 57559.845 -12428.885 L 57326.384 -12680.469 L 56801.365 -12232.845 L 57042.733 -11952.942 L 57559.845 -12428.885" transform="matrix(0.133333, 0, 0, -0.133333, 13.317872, 1512.026033)"/>
  <path id="path724" style="fill: rgb(36, 140, 158); fill-opacity: 1; fill-rule: nonzero; stroke: none;" d="M 56838.918 -11952.942 C 57095.034 -11662.585 59162.013 -9547.537 59162.013 -9547.537 C 60216.206 -8332.308 60628.693 -8300.288 60628.693 -8300.288 C 60628.693 -8300.288 60895.089 -8305.951 61256.719 -8355.178 C 61308.669 -8362.585 61477.917 -8360.624 61532.199 -8369.555 C 62203.438 -8478.248 62222.128 -8401.792 61976.859 -8951.574 C 61573.279 -9855.752 57526.519 -12464.826 57526.519 -12464.826 L 56838.918 -11952.942" transform="matrix(0.133333, 0, 0, -0.133333, 13.317872, 1512.026033)"/>
  <path id="path726" style="fill: rgb(53, 58, 61); fill-opacity: 1; fill-rule: nonzero; stroke: none;" d="M 66281.653 -13055.122 C 66281.653 -13055.122 66613.179 -13199.757 66905.277 -13239.619 C 67197.377 -13279.262 67900.941 -13163.38 68100.903 -13355.281 C 68300.645 -13547.183 67870.011 -14102.629 67221.773 -14185.402 C 66573.753 -14268.173 65743.632 -14405.402 65662.821 -14318.925 C 65582.011 -14232.669 65514.703 -13455.48 65581.573 -13221.539 C 65648.664 -12987.379 66281.653 -13055.122 66281.653 -13055.122" transform="matrix(0.133333, 0, 0, -0.133333, 13.317872, 1512.026033)"/>
  <path id="path728" style="fill: rgb(238, 168, 134); fill-opacity: 1; fill-rule: nonzero; stroke: none;" d="M 66142.465 -12711.617 L 66281.653 -13055.122 L 65581.573 -13221.539 L 65475.93 -12853.637 L 66142.465 -12711.617" transform="matrix(0.133333, 0, 0, -0.133333, 13.317872, 1512.026033)"/>
  <path id="path730" style="fill: rgb(36, 140, 158); fill-opacity: 1; fill-rule: nonzero; stroke: none;" d="M 65091.691 -8368.902 C 65091.691 -8368.902 64806.998 -7282.406 65475.93 -9842.03 C 65475.93 -9842.03 66181.019 -12573.303 66258.781 -12728.607 C 66277.08 -12765.419 65374.642 -12930.528 65358.088 -12923.993 C 65201.04 -12861.261 63796.129 -9361.951 63446.984 -8715.672 C 63139.505 -8146.722 65091.691 -8368.902 65091.691 -8368.902" transform="matrix(0.133333, 0, 0, -0.133333, 13.317872, 1512.026033)"/>
  <path id="path732" style="fill: rgb(36, 140, 158); fill-opacity: 1; fill-rule: nonzero; stroke: none;" d="M 65092.128 -8368.902 L 63687.654 -9176.803 C 63687.654 -9176.803 63135.083 -8498.071 62769.034 -8221 C 62731.416 -8192.902 62693.82 -8164.367 62655.68 -8134.742 C 62601.639 -8094.009 62547.598 -8051.97 62493.556 -8009.712 C 62454.347 -7979 62414.616 -7947.633 62375.954 -7916.484 C 62108.424 -7703.018 61858.385 -7487.376 61720.635 -7327.932 C 61322.785 -6868.543 62193.722 -3964.541 63293.506 -5259.711 C 63293.506 -5259.711 64767.789 -6643.968 65092.128 -8368.902" transform="matrix(0.133333, 0, 0, -0.133333, 13.317872, 1512.026033)"/>
  <path id="path734" style="fill: rgb(36, 140, 158); fill-opacity: 1; fill-rule: nonzero; stroke: none;" d="M 63205.745 -4915.334 C 63205.745 -4915.334 62513.66 -8095.316 61831.528 -9177.02 C 61831.528 -9177.02 60673.063 -8786.465 60140.991 -8577.79 C 60140.991 -8577.79 60089.346 -6279.771 60140.708 -5679.235 C 60188.606 -5118.998 63205.745 -4915.334 63205.745 -4915.334" transform="matrix(0.133333, 0, 0, -0.133333, 13.317872, 1512.026033)"/>
  <path id="path736" style="fill: rgb(42, 163, 184); fill-opacity: 1; fill-rule: nonzero; stroke: none;" d="M 60001.628 -6030.582 C 60001.628 -6030.582 60293.423 -3173.193 60051.771 -1843.607 C 59891.019 -959.687 60123.565 474.671 60653.48 1248.593 C 60717.694 1342.475 60784.37 1426.118 60853.18 1497.128 C 60853.18 1497.128 61922.948 1213.959 62029.986 1139.246 C 62045.254 1128.572 62160.92 1026.196 62307.405 846.928 L 62307.6 846.928 C 62611.964 473.582 63061.482 -202.32 63105.2 -858.399 C 63136.914 -1335.648 63163.14 -1773.905 63192.982 -2226.105 C 63201.912 -2363.767 63211.387 -2502.518 63221.277 -2644.321 C 63245.216 -2984.56 63272.573 -3340.918 63306.772 -3733.649 C 63325.788 -3952.126 63473.036 -4645.233 63569.922 -5284.542 L 60001.628 -6030.582" transform="matrix(0.133333, 0, 0, -0.133333, 13.317872, 1512.026033)"/>
  <path id="path738" style="fill: rgb(25, 99, 112); fill-opacity: 1; fill-rule: nonzero; stroke: none;" d="M 62655.68 -8134.742 C 62601.639 -8094.009 62547.598 -8051.97 62493.556 -8009.712 C 62454.347 -7979 62414.616 -7947.633 62375.954 -7916.484 C 62432.109 -7737.433 62737.298 -6920.602 62857.012 -6337.276 C 62857.012 -6337.276 62945.447 -7245.811 62655.68 -8134.742" transform="matrix(0.133333, 0, 0, -0.133333, 13.317872, 1512.026033)"/>
  <path id="path740" style="fill: rgb(29, 111, 125); fill-opacity: 1; fill-rule: nonzero; stroke: none;" d="M 63221.277 -2644.321 C 63221.277 -2644.321 62598.655 -3590.54 62488.284 -1253.747 L 63192.982 -2226.105 C 63201.912 -2363.767 63211.387 -2502.518 63221.277 -2644.321" transform="matrix(0.133333, 0, 0, -0.133333, 13.317872, 1512.026033)"/>
  <path id="path742" style="fill: rgb(238, 168, 134); fill-opacity: 1; fill-rule: nonzero; stroke: none;" d="M 60853.094 1497.347 C 60853.094 1497.347 60964.619 2115.306 60834.687 2474.714 C 60704.8 2833.682 61899.161 1869.166 61899.161 1869.166 C 61899.161 1869.166 61899.161 1819.068 61901.165 1744.355 C 61902.756 1685.978 61905.959 1612.572 61911.163 1535.464 C 61921.946 1388.216 61941.528 1227.9 61977.905 1135.979 C 62057.846 933.84 60853.094 1497.347 60853.094 1497.347" transform="matrix(0.133333, 0, 0, -0.133333, 13.317872, 1512.026033)"/>
  <path id="path744" style="fill: rgb(238, 168, 134); fill-opacity: 1; fill-rule: nonzero; stroke: none;" d="M 62580.314 3662.929 C 62580.314 3662.929 62832.028 3188.733 62705.213 3116.199 C 62600.44 3056.079 62824.033 2591.03 62853.156 2515.009 C 62882.344 2438.991 62663.237 2385.406 62616.495 2337.049 C 62569.728 2288.475 62427.992 1689.463 62247.764 1672.691 C 62067.517 1655.7 61257.742 1943.227 61038.264 2174.555 C 60818.785 2405.882 60644.332 3445.11 60794.74 3881.841 C 60945.168 4318.575 62135.978 4491.526 62580.314 3662.929" transform="matrix(0.133333, 0, 0, -0.133333, 13.317872, 1512.026033)"/>
  <path id="path746" style="fill: rgb(59, 59, 64); fill-opacity: 1; fill-rule: nonzero; stroke: none;" d="M 62630.479 3560.338 C 62630.479 3560.338 62894.042 4068.951 62424.005 4450.576 C 61953.966 4832.199 61078.192 4173.725 60979.801 4148.892 C 60881.433 4124.278 60298.041 3938.041 60590.794 3070.456 C 60856.405 2283.247 60890.537 2194.376 60890.537 2194.376 C 60890.537 2194.376 61051.901 2717.582 61154.561 2791.207 C 61314.9 2906 61664.567 2875.721 61664.567 2875.721 C 61664.567 2875.721 61500.811 3319.427 61761.738 3380.417 C 62022.668 3441.406 62367.567 3659.881 62630.479 3560.338" transform="matrix(0.133333, 0, 0, -0.133333, 13.317872, 1512.026033)"/>
  <path id="path748" style="fill: rgb(238, 168, 134); fill-opacity: 1; fill-rule: nonzero; stroke: none;" d="M 61388.719 3131.009 C 61366.131 3192.001 61293.575 3453.387 61068.672 3301.564 C 60843.749 3149.961 61203.898 2655.721 61242.887 2649.186 C 61281.877 2642.435 61578.682 2618.909 61388.719 3131.009" transform="matrix(0.133333, 0, 0, -0.133333, 13.317872, 1512.026033)"/>
  <path id="path750" style="fill: rgb(167, 120, 96); fill-opacity: 1; fill-rule: nonzero; stroke: none;" d="M 61911.163 1535.464 C 61541.02 1635.006 61223.631 2036.671 61223.631 2036.671 C 61324.766 1937.781 61901.165 1744.355 61901.165 1744.355 C 61902.756 1685.978 61905.959 1612.572 61911.163 1535.464" transform="matrix(0.133333, 0, 0, -0.133333, 13.317872, 1512.026033)"/>
  <path id="path752" style="fill: rgb(97, 97, 97); fill-opacity: 1; fill-rule: nonzero; stroke: none;" d="M 66043.791 -1826.618 L 65441.079 -4929.709 L 63449.446 -4542.857 L 63974.374 -1424.52 L 66043.791 -1826.618" transform="matrix(0.133333, 0, 0, -0.133333, 13.317872, 1512.026033)"/>
  <path id="path754" style="fill: rgb(224, 206, 199); fill-opacity: 1; fill-rule: nonzero; stroke: none;" d="M 65894.366 -1977.568 L 65359.178 -4733.669 L 63590.246 -4390.166 L 64056.405 -1620.558 L 65894.366 -1977.568" transform="matrix(0.133333, 0, 0, -0.133333, 13.317872, 1512.026033)"/>
  <path id="path756" style="fill: rgb(97, 97, 97); fill-opacity: 1; fill-rule: nonzero; stroke: none;" d="M 65333.693 -1939.886 L 65371.158 -1746.241 L 64656.05 -1607.488 L 64590.485 -1795.469 L 65333.693 -1939.886" transform="matrix(0.133333, 0, 0, -0.133333, 13.317872, 1512.026033)"/>
  <path id="path758" style="fill: rgb(238, 168, 134); fill-opacity: 1; fill-rule: nonzero; stroke: none;" d="M 65810.94 -4005.056 C 65810.94 -4005.056 65723.374 -4041.65 65677.199 -4039.035 C 65677.199 -4039.035 65593.554 -4027.709 65533.654 -4023.353 C 65514.703 -4022.046 65498.148 -4021.393 65487.257 -4022.046 C 65442.385 -4024.66 65344.365 -4043.827 65234.584 -4019.869 C 65124.8 -3996.124 64677.829 -3771.115 64677.829 -3771.115 L 64730.761 -3494.914 L 64743.393 -3229.393 C 64743.393 -3229.393 65395.119 -3007.868 65499.891 -3018.322 C 65510.128 -3019.411 65520.365 -3020.935 65529.732 -3022.897 C 65617.515 -3040.54 65675.675 -3090.421 65720.761 -3104.798 C 65737.316 -3110.244 65898.069 -3174.936 65913.751 -3224.163 C 65935.751 -3292.561 65923.118 -3348.977 65892.187 -3387.313 C 65892.187 -3387.313 65929.217 -3523.233 65890.444 -3609.709 C 65890.444 -3609.709 65928.564 -3734.085 65849.711 -3827.967 C 65849.711 -3827.967 65874.325 -3958.442 65810.94 -4005.056" transform="matrix(0.133333, 0, 0, -0.133333, 13.317872, 1512.026033)"/>
  <path id="path760" style="fill: rgb(238, 168, 134); fill-opacity: 1; fill-rule: nonzero; stroke: none;" d="M 64893.473 -3168.402 C 64893.473 -3168.402 64831.611 -3514.084 64677.829 -3771.115 C 64677.829 -3771.115 64178.235 -3751.292 63831.722 -3699.668 C 63005.218 -3576.162 62658.815 -3463.769 62451.32 -3268.164 C 62078.451 -2916.6 61039.114 -899.568 61039.114 -899.568 L 62045.299 -262.658 L 62752.936 -1846.223 C 62830.068 -2002.4 62971.303 -2234.599 63072.765 -2441.53 C 63205.745 -2712.936 63798.613 -2944.698 64063.506 -3018.105 C 64063.506 -3018.105 64570.662 -3168.402 64893.473 -3168.402" transform="matrix(0.133333, 0, 0, -0.133333, 13.317872, 1512.026033)"/>
  <path id="path762" style="fill: rgb(42, 163, 184); fill-opacity: 1; fill-rule: nonzero; stroke: none;" d="M 62547.075 -1123.706 L 61403.27 -1718.361 C 61403.27 -1718.361 61176.495 -1279.45 61110.103 -1136.776 C 60919.551 -727.705 60624.969 -109.311 60995.462 151.859 C 61795.043 715.582 62138.766 -219.965 62335.156 -732.935 C 62395.775 -891.073 62547.075 -1123.706 62547.075 -1123.706" transform="matrix(0.133333, 0, 0, -0.133333, 13.317872, 1512.026033)"/>
  <path id="path806" style="fill: rgb(224, 224, 224); fill-opacity: 1; fill-rule: nonzero; stroke: none;" d="M 72672.752 6177.74 L 70400.156 6177.74 L 70400.156 6692.67 L 72672.752 6692.67 L 72672.752 6177.74" transform="matrix(0.133333, 0, 0, -0.133333, 13.317872, 1512.026033)"/>
  <g transform="matrix(0.091629, 0, 0, -0.091629, 13160.386046, 1064.188103)" style="">
    <g transform="matrix(0.999998, 0, 0, 0.999998, -1934.648315, 884.425903)">
      <g transform="matrix(4.287348, 0, 0, 4.287348, -96983.65625, -35449.539062)" id="g-41" style="">
        <path id="path-56" style="fill-opacity: 1; fill-rule: nonzero; stroke: none; fill: rgb(128, 170, 255);" d="m 16198.2,8989.18 h -846 c -55.9,0 -101.8,45.84 -101.8,101.85 v 814.56 c 0,56.02 45.9,101.81 101.8,101.81 h 846 c 56,0 101.8,-45.79 101.8,-101.8 v -814.57 c 0,-56.01 -45.8,-101.85 -101.8,-101.85"/>
      </g>
      <g transform="matrix(4.27539, 0, 0, 4.27539, -96991.320312, -35436.226562)" id="g-42" style="">
        <path id="path-57" style="fill-opacity: 1; fill-rule: nonzero; stroke: none; fill: rgb(224, 226, 255);" d="M 16206.7,9058.57 H 15432 c -51.3,0 -93.3,41.98 -93.3,93.28 v 746.07 c 0,51.31 42,93.28 93.3,93.28 h 774.7 c 51.3,0 93.3,-41.97 93.3,-93.27 v -746.08 c 0,-51.31 -42,-93.28 -93.3,-93.28"/>
      </g>
    </g>
    <g transform="matrix(4.155023, 0, 0, 4.155023, -98991.609375, -34528.609375)" id="g-43" style="" bx:origin="1.758 -6.508">
      <path id="path-58" style="fill-opacity: 1; fill-rule: nonzero; stroke: none; fill: rgb(26, 33, 240);" d="m 16255.1,10184.7 c 0,12.4 10,22.4 22.5,22.4 12.3,0 22.4,-10 22.4,-22.4 0,-12.4 -10.1,-22.5 -22.4,-22.5 -12.5,0 -22.5,10.1 -22.5,22.5"/>
    </g>
    <g transform="matrix(4.201239, 0, 0, 4.201239, -98991.609375, -34528.609375)" id="g-44" style="" bx:origin="-2.215 -5.567">
      <path id="path-59" style="fill-opacity: 1; fill-rule: nonzero; stroke: none; fill: rgb(26, 33, 240);" d="m 16255.3,10041.3 c 6,10.7 19.4,14.5 30.2,8.6 10.7,-6 14.5,-19.5 8.5,-30.2 -5.9,-10.7 -19.4,-14.5 -30.1,-8.6 -10.7,6 -14.5,19.5 -8.6,30.2"/>
    </g>
    <g transform="matrix(4.238896, 0, 0, 4.238896, -98991.609375, -34528.609375)" id="g-45" style="" bx:origin="-5.503 -2.641">
      <path id="path-60" style="fill-opacity: 1; fill-rule: nonzero; stroke: none; fill: rgb(26, 33, 240);" d="m 16263,9831.36 c 10.2,6.59 23.8,3.66 30.4,-6.56 6.6,-10.19 3.7,-23.81 -6.6,-30.4 -10.2,-6.58 -23.7,-3.64 -30.4,6.57 -6.5,10.2 -3.6,23.81 6.6,30.39"/>
    </g>
    <g transform="matrix(4.254548, 0, 0, 4.254548, -98991.609375, -34528.609375)" id="g-46" style="" bx:origin="-6.947 1.69">
      <path id="path-61" style="fill-opacity: 1; fill-rule: nonzero; stroke: none; fill: rgb(26, 33, 240);" d="m 16278.1,9608.88 c 12.1,0 21.9,-9.81 21.9,-21.9 0,-12.11 -9.8,-21.91 -21.9,-21.91 -12.1,0 -21.9,9.8 -21.9,21.91 0,12.09 9.8,21.9 21.9,21.9"/>
    </g>
    <g transform="matrix(4.241093, 0, 0, 4.241093, -98991.609375, -34528.609375)" id="g-47" style="" bx:origin="-5.712 6.475">
      <path id="path-62" style="fill-opacity: 1; fill-rule: nonzero; stroke: none; fill: rgb(26, 33, 240);" d="m 16291.4,9422.59 c 8.6,-8.58 8.6,-22.5 0,-31.08 -8.6,-8.58 -22.5,-8.58 -31.1,0 -8.6,8.58 -8.6,22.5 0,31.08 8.6,8.59 22.5,8.59 31.1,0"/>
    </g>
    <g transform="matrix(4.205146, 0, 0, 4.205146, -98991.609375, -34528.609375)" id="g-48" style="" bx:origin="-2.578 9.624">
      <path id="path-63" style="fill-opacity: 1; fill-rule: nonzero; stroke: none; fill: rgb(26, 33, 240);" d="m 16291.4,9363.53 c 8.6,-8.66 8.6,-22.69 0,-31.35 -8.7,-8.66 -22.8,-8.66 -31.4,0 -8.6,8.66 -8.6,22.69 0,31.35 8.6,8.65 22.7,8.65 31.4,0"/>
    </g>
    <g transform="matrix(4.155023, 0, 0, 4.155023, -98991.609375, -34528.609375)" id="g-49" style="" bx:origin="1.758 10.892">
      <path id="path-64" style="fill-opacity: 1; fill-rule: nonzero; stroke: none; fill: rgb(26, 33, 240);" d="m 16255.1,9403.71 c 0,12.39 10,22.43 22.5,22.43 12.3,0 22.4,-10.04 22.4,-22.43 0,-12.39 -10.1,-22.44 -22.4,-22.44 -12.5,0 -22.5,10.05 -22.5,22.44"/>
    </g>
    <g transform="matrix(4.110241, 0, 0, 4.110241, -98991.609375, -34528.609375)" id="g-50" style="" bx:origin="5.737 -5.564">
      <path id="path-65" style="fill-opacity: 1; fill-rule: nonzero; stroke: none; fill: rgb(26, 33, 240);" d="m 16293.9,10263.6 c -6.1,11 -19.9,14.9 -30.8,8.8 -11,-6 -15,-19.9 -8.9,-30.8 6.1,-11 20,-14.9 30.9,-8.8 11,6.1 14.9,19.9 8.8,30.8"/>
    </g>
    <g transform="matrix(4.072584, 0, 0, 4.072584, -98991.609375, -34528.609375)" id="g-51" style="" bx:origin="9.04 -2.638">
      <path id="path-66" style="fill-opacity: 1; fill-rule: nonzero; stroke: none; fill: rgb(26, 33, 240);" d="m 16286.3,10232.8 c -10.6,6.9 -24.8,3.8 -31.6,-6.8 -6.9,-10.6 -3.8,-24.8 6.8,-31.7 10.6,-6.8 24.8,-3.8 31.6,6.9 6.9,10.6 3.8,24.8 -6.8,31.6"/>
    </g>
    <g transform="matrix(4.055311, 0, 0, 4.055311, -98991.609375, -34528.609375)" id="g-52" style="" bx:origin="10.47 1.689">
      <path id="path-67" style="fill-opacity: 1; fill-rule: nonzero; stroke: none; fill: rgb(26, 33, 240);" d="m 16277,10081 c -12.7,0 -23,-10.3 -23,-23 0,-12.7 10.3,-23 23,-23 12.7,0 23,10.3 23,23 0,12.7 -10.3,23 -23,23"/>
    </g>
    <g transform="matrix(4.069906, 0, 0, 4.069906, -98991.609375, -34528.609375)" id="g-53" style="" bx:origin="9.246 6.474">
      <path id="path-68" style="fill-opacity: 1; fill-rule: nonzero; stroke: none; fill: rgb(26, 33, 240);" d="m 16258.7,9818.94 c -9,-8.95 -9,-23.46 0,-32.4 8.9,-8.94 23.4,-8.94 32.4,0 8.9,8.94 8.9,23.45 0,32.4 -9,8.94 -23.5,8.94 -32.4,0"/>
    </g>
    <g transform="matrix(4.105817, 0, 0, 4.105817, -98991.609375, -34528.609375)" id="g-54" style="" bx:origin="6.105 9.623">
      <path id="path-69" style="fill-opacity: 1; fill-rule: nonzero; stroke: none; fill: rgb(26, 33, 240);" d="m 16259,9590.09 c -8.9,-8.87 -8.9,-23.24 0,-32.11 8.9,-8.87 23.2,-8.87 32.1,0 8.9,8.87 8.9,23.24 0,32.11 -8.9,8.86 -23.2,8.86 -32.1,0"/>
    </g>
    <g transform="matrix(4.159194, 0, 0, 4.159194, -98991.609375, -34528.609375)" id="g-55" style="" bx:origin="1.394 1.689">
      <path id="path-70" style="fill-opacity: 1; fill-rule: nonzero; stroke: none; fill: rgb(26, 33, 240);" d="m 16255.2,9806.81 c 0,12.37 10,22.41 22.4,22.41 12.4,0 22.4,-10.04 22.4,-22.41 0,-12.38 -10,-22.41 -22.4,-22.41 -12.4,0 -22.4,10.03 -22.4,22.41"/>
    </g>
    <g transform="matrix(4.154273, 0, 0, 4.154273, -98991.609375, -34528.609375)" id="g-56" style="" bx:origin="7.064 0.19">
      <path id="path-71" style="fill-opacity: 1; fill-rule: nonzero; stroke: none; fill: rgb(26, 33, 240);" d="m 16300,9818.47 h -6.1 v 280.33 h 6.1 v -280.33"/>
    </g>
    <g transform="matrix(4.192088, 0, 0, 4.192088, -98991.609375, -34528.609375)" id="g-57" style="" bx:origin="0.304 0.459">
      <path id="path-72" style="fill-opacity: 1; fill-rule: nonzero; stroke: none; fill: rgb(26, 33, 240);" d="m 16152.7,9723.08 -11.3,14.33 147.3,115.6 11.3,-14.32 -147.3,-115.61"/>
    </g>
  </g>
  <path id="path804" style="fill: rgb(93, 150, 255); fill-opacity: 1; fill-rule: nonzero; stroke: none;" d="M 81240.179 4590.196 L 72650.129 4590.196 L 72650.129 4760.952 L 81069.47 4760.952 L 81069.47 8399.634 L 81240.179 8399.634 L 81240.179 4590.196" transform="matrix(0.133333, 0, 0, -0.133333, 13.317872, 1512.026033)"/>
  <path id="path802" style="fill: rgb(93, 150, 255); fill-opacity: 1; fill-rule: nonzero; stroke: none;" d="M 56843.023 9888.786 C 56571.268 9910.66 56299.084 9972.278 56034.315 10076.838 L 56293.802 10736.226 C 56492.286 10657.804 56696.448 10611.656 56900.132 10595.118 L 56843.023 9888.786" transform="matrix(-0.133333, 0, 0, 0.133333, 18378.026657, -951.845604)"/>
</svg>