<?xml version="1.0" encoding="utf-8"?>
<svg viewBox="-281.829 -122.967 1355.345 786.322" xmlns="http://www.w3.org/2000/svg" xmlns:bx="https://boxy-svg.com">
  <g style="" transform="matrix(0.500988, 0, 0, 0.500988, 904.683979, -816.313067)">
    <g>
      <g transform="matrix(0.237821, 0, 0, -0.237821, -3476.224365, 3149.811523)" id="g18" style="" bx:origin="0.58 0.45">
        <g>
          <path id="path-1" style="fill-opacity: 1; fill-rule: nonzero; stroke: none; fill: rgba(0, 118, 245, 0.06);" d="M 15260.955 838.444 L 13379.703 825.451 L 10980.569 834.45 L 5616.904 854.474 C 5616.904 854.474 4847.478 1495.61 4866.159 2612.73 C 4878.087 3326.501 5037.11 4833.347 6703.723 5185.572 C 8266.859 5515.934 7851.264 7617.397 10156.003 7410.889 C 11065.445 7329.404 11468.903 6520.683 12171.708 6736.125 C 15141.871 7646.559 15793.908 5753.319 16017.501 3915.447 C 16099.997 3237.362 15877.198 1127.351 15260.955 838.444"/>
        </g>
      </g>
      <g transform="matrix(0.193271, 0, 0, -0.193271, -3042.835937, 3136.021484)" id="g146" style="">
        <path id="path-80" style="fill:#bed2fa;fill-opacity:1;fill-rule:nonzero;stroke:none" d="M 16300,962.247 H 13039.5 V 6922.29 H 16300 V 962.247"/>
      </g>
      <g transform="matrix(0.191621, 0, 0, -0.191621, -3042.835937, 3136.021484)" id="g150" style="">
        <path id="path-81" style="fill-opacity: 1; fill-rule: nonzero; stroke: none; fill: rgb(236, 242, 254);" d="M 16300,970.532 H 13296.2 V 6876.31 H 16300 V 970.532"/>
      </g>
      <g transform="matrix(0.188753, 0, 0, -0.188753, -3042.835937, 3136.021484)" id="g154" style="">
        <path id="path-82" style="fill-opacity: 1; fill-rule: nonzero; stroke: none; fill: rgb(75, 130, 241);" d="m 16030.4,4024 c 0,74.49 60.4,134.81 134.8,134.81 74.5,0 134.8,-60.32 134.8,-134.81 0,-74.43 -60.3,-134.76 -134.8,-134.76 -74.4,0 -134.8,60.33 -134.8,134.76"/>
      </g>
      <g transform="matrix(0.181304, 0, 0, -0.181304, -3042.835937, 3136.021484)" id="g158" style="">
        <path id="path-83" style="fill:#ffffff;fill-opacity:1;fill-rule:nonzero;stroke:none" d="m 16300,5907.96 h -1310.5 v 413.71 H 16300 v -413.71"/>
      </g>
      <g transform="matrix(0.181478, 0, 0, -0.181478, -3042.835937, 3136.021484)" id="g170" style="">
        <path id="path-84" style="fill:#c0d3fa;fill-opacity:1;fill-rule:nonzero;stroke:none" d="m 14990.8,5918.03 h 1277.8 v 381.88 H 14990.8 Z M 16300,5886.59 H 14959.4 V 6331.3 H 16300 v -444.71"/>
      </g>
      <g transform="matrix(0.127004, 0, 0, -0.127004, -2863.708984, 3139.844238)" id="g346" style=""/>
      <g transform="matrix(0.126226, 0, 0, -0.126226, -2863.708984, 3139.844238)" id="g354" style=""/>
      <g transform="matrix(0.239306, 0, 0, -0.239306, -3599.948486, 3159.871338)" id="g358" style="">
        <path id="path360" style="fill:#010117;fill-opacity:1;fill-rule:nonzero;stroke:none" d="M 16281.9,862.367 H 5164.63 c -9.94,0 -18.07,8.134 -18.07,18.059 v 0 c 0,9.924 8.13,18.059 18.07,18.059 H 16281.9 c 10,0 18.1,-8.135 18.1,-18.059 v 0 c 0,-9.925 -8.1,-18.059 -18.1,-18.059"/>
      </g>
    </g>
  </g>
  <g transform="matrix(1.355074, 0, 0, -1.355074, -171.83971, 746.26796)" id="g10" style="">
    <g transform="scale(0.1)" id="g12">
      <path id="path18" style="fill-opacity: 1; fill-rule: evenodd; stroke: none; fill: rgb(178, 167, 215);" d="m 3322.23,1547.96 h 747.32 l 117.16,-756.48 h -981.64 l 117.16,756.48"/>
      <path id="path20" style="fill:#ffffff;fill-opacity:1;fill-rule:evenodd;stroke:none" d="M 3099.68,802.398 H 4292.1 c 62.48,0 113.61,-51.109 113.61,-113.617 0,-19.449 -15.92,-35.371 -35.37,-35.371 H 3021.42 c -19.46,0 -35.38,15.922 -35.38,35.371 0,62.508 51.14,113.617 113.64,113.617"/>
      <path id="path22" style="fill:#18649c;fill-opacity:1;fill-rule:evenodd;stroke:none" d="M 2134.77,3463.16 H 5225.5 c 64.14,0 116.62,-52.48 116.62,-116.62 V 1500.18 c 0,-64.14 -52.48,-116.62 -116.62,-116.62 H 2134.77 c -64.14,0 -116.63,52.48 -116.63,116.62 v 1846.36 c 0,64.15 52.49,116.62 116.63,116.62"/>
      <path id="path24" style="fill-opacity: 1; fill-rule: evenodd; stroke: none; fill: rgb(255, 255, 255);" d="m 5342.12,1558.2 v -223.56 c 0,-64.14 -52.48,-116.63 -116.62,-116.63 H 2134.77 c -64.14,0 -116.63,52.49 -116.63,116.63 v 223.56 h 3323.98"/>
      <path id="path26" style="fill-opacity: 1; fill-rule: evenodd; stroke: none; fill: rgb(117, 223, 255);" d="M 2104.814 3352.65 L 5207.744 3352.65 L 5207.744 1668.75 L 2104.814 1668.75 L 2104.814 3352.65"/>
      <path id="path28" style="fill:#ddd7ed;fill-opacity:1;fill-rule:evenodd;stroke:none" d="m 3680.15,1486.89 c 50.97,0 92.29,-41.33 92.29,-92.31 0,-50.97 -41.32,-92.3 -92.29,-92.3 -51,0 -92.33,41.33 -92.33,92.3 0,50.98 41.33,92.31 92.33,92.31"/>
      <path id="path226" style="fill:#e9e2f2;fill-opacity:1;fill-rule:evenodd;stroke:none" d="m 4791.19,1025.08 c 6.51,0 11.82,5.32 11.82,11.82 0,6.5 -5.31,11.79 -11.82,11.79 -6.5,0 -11.8,-5.29 -11.8,-11.79 0,-6.5 5.3,-11.82 11.8,-11.82"/>
      <path id="path230" style="fill:#e9e2f2;fill-opacity:1;fill-rule:evenodd;stroke:none" d="m 4791.19,964.66 c 6.51,0 11.82,5.301 11.82,11.801 0,6.5 -5.31,11.789 -11.82,11.789 -6.5,0 -11.8,-5.289 -11.8,-11.789 0,-6.5 5.3,-11.801 11.8,-11.801"/>
      <path id="path236" style="fill:#ffffff;fill-opacity:1;fill-rule:evenodd;stroke:none" d="m 5702.29,1774.21 h 319.21 c 20.68,0 37.57,-16.92 37.57,-37.57 v -729.7 c 0,-20.651 -16.89,-37.569 -37.57,-37.569 h -319.21 c -20.65,0 -37.54,16.918 -37.54,37.569 v 729.7 c 0,20.65 16.89,37.57 37.54,37.57"/>
      <g transform="matrix(1, 0, 0, 1, 3786.844971, 1315.42395)">
        <path id="path-6" style="fill: rgb(251, 201, 177); fill-opacity: 1; fill-rule: nonzero; stroke: none;" d="M 26.286 1903.084 C 24.734 1842.612 11.159 1731.703 40.886 1705.516 C 70.625 1679.319 97.795 1655.329 97.795 1655.329 C 19.794 1512.714 -62.854 1484.921 -246.017 1649.864 C -204.18 1657.646 -200.136 1715.298 -199.568 1740.031 C -199 1764.763 -195.491 1898.69 -195.491 1898.69 L 26.286 1903.084"/>
        <path id="path-7" style="fill: rgb(90, 136, 140); fill-opacity: 1; fill-rule: nonzero; stroke: none;" d="M 23.346 1756.993 C 19.072 1801.922 25.269 1863.378 26.286 1903.084 L 26.286 1903.084 C 25.269 1863.345 19.138 1801.944 23.422 1756.993 C 23.4 1756.993 23.367 1756.993 23.346 1756.993 M -198.114 1797.638 C -196.978 1841.891 -195.612 1894.461 -195.502 1898.45 C -195.612 1894.45 -196.978 1841.88 -198.114 1797.638 M -195.502 1898.472 C -195.502 1898.483 -195.502 1898.494 -195.502 1898.504 C -195.502 1898.494 -195.502 1898.483 -195.502 1898.472 M -195.502 1898.526 C -195.502 1898.537 -195.502 1898.548 -195.502 1898.559 C -195.502 1898.548 -195.502 1898.537 -195.502 1898.526 M -195.502 1898.559 C -195.502 1898.592 -195.502 1898.614 -195.502 1898.636 C -195.502 1898.614 -195.502 1898.592 -195.502 1898.559 M -195.502 1898.636 L -195.502 1898.647 L -195.502 1898.636 M -195.491 1898.668 C -195.491 1898.668 -195.491 1898.668 -195.491 1898.679 C -195.491 1898.668 -195.491 1898.668 -195.491 1898.668 M -195.491 1898.679 C -195.491 1898.69 -195.491 1898.69 -195.491 1898.69 C -195.491 1898.69 -195.491 1898.69 -195.491 1898.679 M -195.491 1898.69 L -195.491 1898.69 L -195.491 1898.69 M -195.491 1898.69 L -195.491 1898.69 L -195.491 1898.69"/>
        <path id="path-8" style="fill: rgb(211, 166, 144); fill-opacity: 1; fill-rule: nonzero; stroke: none;" d="M -53.487 1752.283 C -100.024 1752.283 -149.315 1757.474 -198.825 1770.064 C -198.606 1778.435 -198.366 1787.835 -198.114 1797.638 C -196.978 1841.88 -195.612 1894.45 -195.502 1898.45 C -195.502 1898.461 -195.502 1898.461 -195.502 1898.472 C -195.502 1898.483 -195.502 1898.494 -195.502 1898.504 C -195.502 1898.515 -195.502 1898.515 -195.502 1898.526 C -195.502 1898.537 -195.502 1898.548 -195.502 1898.559 L -195.502 1898.559 C -195.502 1898.592 -195.502 1898.614 -195.502 1898.636 L -195.502 1898.636 L -195.502 1898.647 C -195.502 1898.658 -195.491 1898.658 -195.491 1898.668 C -195.491 1898.668 -195.491 1898.668 -195.491 1898.679 L -195.491 1898.679 C -195.491 1898.69 -195.491 1898.69 -195.491 1898.69 L -195.491 1898.69 L -195.491 1898.69 L -195.491 1898.69 L -195.491 1898.69 L -195.491 1898.69 L 26.286 1903.084 C 25.269 1863.378 19.072 1801.922 23.346 1756.993 C -1.038 1753.988 -26.809 1752.283 -53.487 1752.283"/>
        <path id="path-9" style="fill: rgb(251, 201, 177); fill-opacity: 1; fill-rule: nonzero; stroke: none;" d="M 147.184 2314.909 C 182.693 2394.802 254.98 2363.096 248.63 2264.186 C 242.291 2165.265 181.426 2086.651 120.55 2212.185 C 140.834 2290.81 147.184 2314.909 147.184 2314.909"/>
        <path id="path-14" style="fill-opacity: 1; fill-rule: nonzero; stroke: none; fill: rgb(133, 231, 234);" d="M -270.39 1690.849 C -297.702 1671.723 -357.135 1649.864 -357.135 1649.864 L -391.749 506.85 C -391.749 506.85 70.931 474.064 249.439 526.884 C 339.671 553.584 178.398 1608.879 175.666 1617.076 C 172.934 1625.273 99.85 1683.33 99.85 1683.33 C 99.85 1683.33 -50.198 1605.251 -93.008 1601.601 C -135.818 1597.95 -270.39 1690.849 -270.39 1690.849"/>
        <path id="path-15" style="fill-opacity: 1; fill-rule: nonzero; stroke: none; fill: rgb(255, 255, 255);" d="M 231.638 1666.258 C 214.86 1502.843 278.714 677.663 298.194 348.132 C 402.085 338.392 473.511 370.858 483.25 383.844 C 497.86 503.97 386.936 941.717 386.936 1078.074 C 386.936 1214.433 366.373 1551.004 363.126 1581.846 C 359.879 1612.689 231.638 1666.258 231.638 1666.258"/>
        <path id="path-16" style="fill-opacity: 1; fill-rule: nonzero; stroke: none; fill: rgb(59, 181, 124);" d="M -102.341 1480.462 C -113.27 1387.563 -168.605 682.626 -163.141 666.232 C -157.676 649.838 -62.045 540.545 -59.313 548.742 C -56.58 556.939 22.657 647.106 22.657 666.232 C 22.657 685.358 -62.045 1480.462 -62.045 1480.462 L -102.341 1480.462"/>
        <path id="path-17" style="fill: rgb(93, 147, 124); fill-opacity: 1; fill-rule: nonzero; stroke: none;" d="M -161.775 1535.107 C -145.381 1513.249 -122.156 1457.237 -109.86 1451.772 C -97.565 1446.308 -64.777 1446.308 -57.946 1451.772 C -51.116 1457.237 -8.765 1524.178 -8.765 1524.178 L -85.27 1595.218 C -85.27 1595.218 -153.578 1543.304 -161.775 1535.107"/>
        <path id="path-18" style="fill: rgb(185, 232, 239); fill-opacity: 1; fill-rule: nonzero; stroke: none;" d="M -200.705 1735.932 C -222.563 1723.189 -285.188 1691.767 -285.188 1684.477 C -285.188 1677.188 -217.787 1495.041 -179.535 1465.893 C -123.97 1531.467 -93.008 1581.556 -93.008 1581.556 L 7.181 1487.751 C 100.986 1575.185 109.642 1671.034 108.724 1676.499 C 107.806 1681.964 39.74 1722.271 27.215 1736.391 C -12.863 1668.083 -93.008 1601.601 -93.008 1601.601 C -93.008 1601.601 -190.693 1697.68 -200.705 1735.932"/>
        <path id="path-19" style="fill: rgb(206, 143, 55); fill-opacity: 1; fill-rule: nonzero; stroke: none;" d="M 180.978 2598.129 C 207.601 2523.32 222.815 2453.558 213.94 2404.114 C 205.066 2354.648 202.53 2246.863 198.727 2237.978 C 194.923 2229.103 173.36 2226.568 173.36 2226.568 C 173.36 2226.568 188.584 2491.614 158.135 2603.212"/>
        <path id="path-20" style="fill: rgb(251, 201, 177); fill-opacity: 1; fill-rule: nonzero; stroke: none;" d="M 155.6 2617.157 C 203.798 2482.739 164.791 2318.09 188.584 1937.424 C 192.377 1876.558 -102.855 1752.425 -337.583 1903.259 C -359.256 1933.631 -420.132 2525.855 -371.945 2596.862 C -323.747 2667.879 11.05 2782.014 155.6 2617.157"/>
        <path id="path-21" style="fill: rgb(251, 201, 177); fill-opacity: 1; fill-rule: nonzero; stroke: none;" d="M -390.962 2305.193 C -426.471 2385.075 -498.756 2353.38 -492.406 2254.47 C -486.067 2155.549 -390.962 2059.164 -363.059 2166.97 C -383.355 2245.596 -390.962 2305.193 -390.962 2305.193"/>
        <path id="path-22" style="fill: rgb(206, 143, 55); fill-opacity: 1; fill-rule: nonzero; stroke: none;" d="M -384.623 2634.906 C -401.104 2738.887 -195.677 2836.551 -46.033 2832.736 C 103.609 2828.944 136.168 2875 136.168 2875 C 174.212 2816.67 348.369 2642.524 172.092 2576.577 C 117.566 2632.371 -51.094 2694.514 -141.129 2651.387 C -231.176 2608.283 -338.119 2615.89 -366.021 2574.03 C -311.069 2376.211 -364.338 2358.451 -355.463 2325.478 C -346.578 2292.515 -337.703 2218.961 -342.774 2210.086 C -347.846 2201.212 -373.212 2205.015 -373.212 2205.015 C -373.212 2205.015 -385.89 2291.236 -404.918 2321.685 C -423.935 2352.112 -548.625 2619.682 -384.623 2634.906"/>
        <path id="path-23" style="fill: rgb(206, 143, 55); fill-opacity: 1; fill-rule: nonzero; stroke: none;" d="M -311.921 2367.741 C -335.583 2447.208 -230.76 2550.379 -180.026 2470.903 C -161.436 2426.912 -158.037 2408.322 -176.649 2413.393 C -195.24 2418.475 -237.525 2425.24 -311.921 2367.741"/>
        <path id="path-24" style="fill: rgb(206, 143, 55); fill-opacity: 1; fill-rule: nonzero; stroke: none;" d="M 154.966 2379.326 C 174.781 2459.842 65.094 2557.822 18.264 2475.996 C 1.804 2431.175 -0.677 2412.431 17.662 2418.409 C 36.002 2424.366 77.893 2433.164 154.966 2379.326"/>
        <path id="path-25" style="fill: rgb(33, 17, 14); fill-opacity: 1; fill-rule: nonzero; stroke: none;" d="M -171.567 2280.668 C -171.567 2253.115 -185.961 2230.797 -203.699 2230.797 C -221.438 2230.797 -235.831 2253.115 -235.831 2280.668 C -235.831 2308.22 -221.438 2330.549 -203.699 2330.549 C -185.961 2330.549 -171.567 2308.22 -171.567 2280.668"/>
        <path id="path-26" style="fill: rgb(33, 17, 14); fill-opacity: 1; fill-rule: nonzero; stroke: none;" d="M 85.86 2289.542 C 85.86 2262.011 71.477 2239.661 53.739 2239.661 C 36.002 2239.661 21.608 2262.011 21.608 2289.542 C 21.608 2317.084 36.002 2339.423 53.739 2339.423 C 71.477 2339.423 85.86 2317.084 85.86 2289.542"/>
        <path id="path-27" style="fill: rgb(150, 113, 96); fill-opacity: 1; fill-rule: nonzero; stroke: none;" d="M -81.532 2102.28 C -83.182 2103.613 -74.898 2115.854 -62.22 2135.56 C -56.154 2145.418 -48.383 2157.462 -43.749 2170.828 C -42.602 2174.118 -42.066 2177.484 -42.208 2179.943 C -42.7 2182.413 -42.667 2182.61 -44.711 2183.474 C -49.29 2185.146 -58.307 2183.9 -66.406 2181.878 L -72.756 2180.249 C -76.351 2179.167 -79.849 2178.719 -82.515 2179.167 C -84.526 2181.244 -87.598 2182.523 -87.958 2186.61 C -88.625 2190.261 -88.483 2195.485 -88.516 2196.709 C -88.494 2200.939 -88.319 2205.004 -88.133 2208.993 C -87.74 2216.95 -87.16 2224.535 -86.526 2231.748 C -85.248 2246.153 -83.718 2258.995 -82.177 2269.738 C -79.105 2291.193 -75.805 2304.155 -73.936 2303.925 C -72.056 2303.685 -71.925 2290.46 -72.439 2268.908 C -72.777 2258.142 -73.193 2245.3 -73.641 2230.961 C -73.838 2223.824 -74.045 2216.316 -74.275 2208.513 C -74.297 2204.654 -74.318 2200.742 -74.34 2196.753 C -74.297 2193.955 -74.297 2194.906 -74.275 2194.72 L -74.231 2194.72 L -74.209 2194.753 L -69.772 2195.878 C -65.182 2196.982 -60.482 2197.911 -55.553 2198.337 C -50.624 2198.687 -45.4 2198.829 -39.476 2196.578 C -36.58 2195.452 -33.377 2193.277 -31.399 2190.173 C -29.235 2187.124 -28.656 2183.703 -28.47 2180.861 C -28.339 2175.124 -29.661 2170.511 -31.213 2166.468 C -37.694 2150.456 -46.558 2139.232 -53.913 2129.658 C -69.072 2110.991 -80.089 2101.11 -81.532 2102.28"/>
        <path id="path-28" style="fill-opacity: 1; fill-rule: nonzero; stroke: none; fill: rgb(255, 255, 255);" d="M -214.694 2059.164 C -153.807 2042.683 -72.657 2008.442 55.422 2059.164 C -13.06 1882.897 -108.166 1867.673 -214.694 2059.164"/>
        <path id="path-29" style="fill: rgb(231, 237, 236); fill-opacity: 1; fill-rule: nonzero; stroke: none;" d="M 120.112 1679.92 C 114.648 1587.021 136.495 677.62 172.934 457.211 C 198.443 763.229 216.651 1197.218 236.695 1290.117 C 218.465 1317.44 182.049 1355.693 182.049 1355.693 L 229.394 1368.436 C 240.324 1423.083 242.149 1616.18 240.324 1623.459 C 238.509 1630.738 120.112 1679.92 120.112 1679.92"/>
        <path id="path-30" style="fill-opacity: 1; fill-rule: nonzero; stroke: none; fill: rgb(255, 255, 255);" d="M -344.109 1674.455 C -329.731 1507.778 -371.268 707.931 -390.438 383.628 C -492.682 374.043 -582.144 399.602 -591.73 412.383 C -606.108 530.602 -465.523 967.26 -465.523 1101.455 C -465.523 1235.65 -476.707 1561.029 -473.511 1591.382 C -470.316 1621.736 -344.109 1674.455 -344.109 1674.455"/>
        <path id="path-31" style="fill: rgb(231, 237, 236); fill-opacity: 1; fill-rule: nonzero; stroke: none;" d="M -296.115 1688.118 C -290.656 1595.214 -294.738 678.983 -331.182 458.575 C -356.691 764.592 -392.659 1205.415 -412.692 1298.312 C -394.47 1325.632 -358.043 1363.888 -358.043 1363.888 L -405.397 1376.633 C -416.339 1431.274 -418.151 1624.378 -416.339 1631.657 C -414.512 1638.936 -296.115 1688.118 -296.115 1688.118"/>
        <path id="path-32" style="fill-opacity: 1; fill-rule: nonzero; stroke: none; fill: rgb(255, 255, 255);" d="M -521.992 1542.397 C -552.953 1474.997 -810.699 896.664 -761.517 801.941 C -650.399 805.58 -502.855 942.184 -502.855 942.184 C -502.855 942.184 -474.635 1538.757 -521.992 1542.397"/>
        <path id="path-33" style="fill: rgb(251, 201, 177); fill-opacity: 1; fill-rule: nonzero; stroke: none;" d="M 51.127 1061.662 C 107.27 1090.887 197.055 1112.964 255.439 1121.413 C 313.801 1129.861 381.135 1138.67 395.442 1122.484 C 417.836 1097.15 454.897 990.929 399.879 958.852 C 344.851 926.785 118.987 947.179 75.597 922.293 C 50.11 928.698 51.127 1061.662 51.127 1061.662"/>
        <path id="path-34" style="fill: rgb(90, 136, 140); fill-opacity: 1; fill-rule: nonzero; stroke: none;" d="M 399.333 958.546 L 399.333 958.546 L 399.333 958.546 M 399.497 958.644 C 399.508 958.644 399.508 958.644 399.519 958.644 C 399.519 958.644 399.508 958.644 399.497 958.644 M 399.682 958.742 C 399.693 958.742 399.693 958.742 399.693 958.753 C 399.693 958.742 399.682 958.742 399.682 958.742"/>
        <path id="path-35" style="fill: rgb(211, 166, 144); fill-opacity: 1; fill-rule: nonzero; stroke: none;" d="M 322.075 942.184 C 319.834 957.485 308.719 1034.208 297.342 1127.107 C 318.424 1129.675 338.796 1131.533 355.637 1131.533 C 374.928 1131.533 389.595 1129.096 395.442 1122.484 C 409.224 1106.899 428.547 1060.69 428.569 1019.978 C 428.579 994.514 421.049 971.191 399.879 958.852 L 399.879 958.852 C 399.814 958.819 399.759 958.786 399.693 958.753 C 399.693 958.742 399.693 958.742 399.682 958.742 C 399.628 958.71 399.573 958.677 399.519 958.644 C 399.508 958.644 399.508 958.644 399.497 958.644 C 399.442 958.611 399.387 958.578 399.333 958.546 L 399.333 958.546 C 383.933 949.835 355.725 945.059 322.075 942.184"/>
        <path id="path-36" style="fill: rgb(150, 113, 96); fill-opacity: 1; fill-rule: nonzero; stroke: none;" d="M 217.864 1069.936 C 217.252 1073.838 260.936 1084.024 315.757 1090.876 C 343.146 1094.374 368.206 1096.111 386.469 1096.024 C 404.776 1096.046 416.218 1093.565 415.989 1091.838 C 415.792 1089.598 404.83 1088.461 387.136 1085.849 C 369.277 1083.477 344.709 1080.209 317.528 1076.592 C 263.035 1069.772 218.487 1065.979 217.864 1069.936"/>
        <path id="path-37" style="fill: rgb(150, 113, 96); fill-opacity: 1; fill-rule: nonzero; stroke: none;" d="M 248.674 1046.591 C 248.608 1050.514 288.489 1054.46 337.813 1054.066 C 387.103 1054.241 427.29 1047.804 426.787 1044.219 C 426.601 1042.23 416.492 1040.897 400.437 1040.328 C 384.447 1040.055 362.25 1039.498 337.703 1039.662 C 288.631 1040.055 248.75 1042.547 248.674 1046.591"/>
        <path id="path-38" style="fill: rgb(150, 113, 96); fill-opacity: 1; fill-rule: nonzero; stroke: none;" d="M 269.975 1008.995 C 270.171 1012.918 305.069 1014.481 347.889 1010.733 C 369.299 1008.82 388.633 1005.869 402.513 1002.197 C 409.442 1000.372 415.016 998.361 418.743 996.208 C 422.557 994.197 424.131 991.476 423.355 991.038 C 422.426 990.251 420.645 990.7 416.94 990.907 C 413.082 991.202 407.573 991.629 400.808 992.153 C 386.884 993.246 367.758 994.732 346.632 996.383 C 304.194 1000.099 269.756 1004.984 269.975 1008.995"/>
        <path id="path-39" style="fill-opacity: 1; fill-rule: nonzero; stroke: none; fill: rgb(255, 255, 255);" d="M 80.035 1076.996 C 154.725 1055.127 132.867 933.091 132.867 933.091 C 21.761 834.729 -584.823 643.455 -743.298 723.611 C -774.26 787.372 -776.086 836.554 -734.183 902.129 C -692.291 967.704 -324.348 1013.235 80.035 1076.996"/>
        <path id="path-40" style="fill-opacity: 1; fill-rule: nonzero; stroke: none; fill: rgb(255, 255, 255);" d="M 344.163 1539.664 C 375.124 1472.265 604.638 896.664 555.456 801.941 C 444.35 805.58 333.233 956.775 333.233 956.775 C 333.233 956.775 296.806 1536.025 344.163 1539.664"/>
        <path id="path-41" style="fill: rgb(145, 168, 169); fill-opacity: 1; fill-rule: nonzero; stroke: none;" d="M -690.477 862.052 C -692.083 862.511 -690.564 874.479 -680.957 891.003 C -676.4 899.407 -669.186 908.184 -660.596 917.309 C -651.678 926.108 -641.011 934.895 -628.824 942.611 C -604.343 957.89 -579.162 966.109 -560.527 968.732 C -541.849 971.519 -530.156 969.464 -530.178 967.693 C -530.134 965.497 -541.292 963.901 -558.32 958.786 C -575.38 953.835 -598.277 944.676 -621.163 930.414 C -632.54 923.189 -642.661 915.353 -651.426 907.714 C -659.831 899.757 -667.317 892.325 -672.542 885.265 C -683.482 871.484 -688.323 861.276 -690.477 862.052"/>
        <path id="path-42" style="fill: rgb(145, 168, 169); fill-opacity: 1; fill-rule: nonzero; stroke: none;" d="M -483.728 1417.618 C -483.269 1417.454 -482.657 1416.285 -481.914 1414.492 C -481.215 1412.787 -480.439 1410.394 -479.313 1406.656 C -477.236 1399.497 -474.58 1389.06 -471.564 1376.109 C -465.609 1350.13 -457.849 1314.358 -451.565 1273.865 C -449.969 1263.056 -449.881 1253.154 -449.728 1243.537 C -449.466 1233.897 -449.728 1224.662 -449.783 1215.82 C -449.75 1198.169 -451.116 1182.223 -451.936 1168.9 C -454.526 1142.156 -458.275 1125.883 -460.046 1126.178 C -462.21 1126.484 -462.089 1142.943 -462.111 1169.283 C -462.603 1182.54 -462.308 1198.235 -463.051 1215.743 C -463.303 1224.487 -463.565 1233.656 -463.838 1243.165 C -464.166 1252.673 -464.417 1262.586 -465.827 1271.865 C -478.788 1351.343 -488.778 1416.93 -483.728 1417.618"/>
        <path id="path-43" style="fill-opacity: 1; fill-rule: nonzero; stroke: none; fill: rgb(255, 215, 175);" d="M -287.461 1063.783 C -340.742 1097.937 -428.176 1127.992 -485.553 1141.654 C -542.931 1155.315 -609.195 1170.146 -624.901 1155.315 C -649.492 1132.091 -695.941 1029.629 -644.027 992.743 C -592.113 955.857 -365.332 955.857 -324.348 927.168 C -298.391 931.266 -287.461 1063.783 -287.461 1063.783"/>
        <path id="path-44" style="fill: rgb(186, 173, 165); fill-opacity: 1; fill-rule: nonzero; stroke: none;" d="M -644.224 992.875 C -644.235 992.885 -644.235 992.885 -644.246 992.896 C -644.235 992.885 -644.235 992.885 -644.224 992.875"/>
        <path id="path-47" style="fill: rgb(144, 172, 168); fill-opacity: 1; fill-rule: nonzero; stroke: none;" d="M -287.461 1063.783 C -287.658 1063.903 -287.844 1064.023 -288.041 1064.154 C -287.844 1064.023 -287.658 1063.903 -287.461 1063.783"/>
        <path id="path-48" style="fill-opacity: 1; fill-rule: nonzero; stroke: none; fill: rgb(211, 189, 117);" d="M -324.348 927.168 C -350.687 945.605 -453.761 952.196 -537.838 964.338 C -546.549 965.595 -555.063 966.917 -563.26 968.305 C -599.064 974.415 -628.934 982.011 -644.027 992.743 L -644.027 992.743 C -644.093 992.787 -644.158 992.831 -644.224 992.875 C -644.235 992.885 -644.235 992.885 -644.246 992.896 C -661.525 1005.312 -667.656 1025.082 -667.449 1046.711 C -663.689 1037.738 -658.027 1029.782 -649.492 1023.716 C -597.578 986.831 -370.797 986.831 -329.812 958.141 C -311.2 961.07 -300.325 1030 -295.647 1068.799 C -293.068 1067.258 -290.489 1065.706 -288.041 1064.154 C -287.844 1064.023 -287.658 1063.903 -287.461 1063.783 L -287.461 1063.783 C -287.461 1063.783 -298.391 931.266 -324.348 927.168"/>
        <path id="path-49" style="fill: rgb(150, 113, 96); fill-opacity: 1; fill-rule: nonzero; stroke: none;" d="M -452.767 1086.996 C -453.739 1083.117 -497.772 1090.898 -551.434 1102.592 C -578.167 1108.636 -602.354 1114.101 -619.917 1118.079 C -637.306 1122.254 -648.126 1124.385 -648.126 1126.615 C -648.191 1128.375 -636.573 1129.817 -618.343 1128.145 C -600.146 1126.593 -575.347 1122.615 -548.385 1116.669 C -494.395 1104.909 -451.805 1090.833 -452.767 1086.996"/>
        <path id="path-50" style="fill: rgb(150, 113, 96); fill-opacity: 1; fill-rule: nonzero; stroke: none;" d="M -485.553 1066.504 C -485.98 1062.526 -525.937 1063.608 -574.834 1067.63 C -599.315 1069.673 -621.36 1072.22 -637.273 1073.925 C -653.208 1075.947 -663.153 1078.176 -663.153 1080.166 C -663.35 1083.794 -622.726 1086.592 -573.653 1081.991 C -524.495 1077.947 -485.127 1070.428 -485.553 1066.504"/>
        <path id="path-51" style="fill: rgb(150, 113, 96); fill-opacity: 1; fill-rule: nonzero; stroke: none;" d="M -510.144 1030.984 C -510.297 1026.995 -545.019 1025.213 -587.61 1025.322 C -608.824 1025.585 -627.994 1025.814 -641.961 1025.989 C -648.759 1026.077 -654.268 1026.131 -658.148 1026.186 C -661.853 1026.328 -663.667 1026.033 -664.519 1026.885 C -665.252 1027.399 -663.448 1029.956 -659.47 1031.64 C -655.568 1033.443 -649.831 1034.94 -642.759 1036.132 C -628.606 1038.547 -609.086 1039.76 -587.588 1039.738 C -544.603 1039.629 -509.991 1034.94 -510.144 1030.984"/>
        <path id="path-52" style="fill-opacity: 1; fill-rule: nonzero; stroke: none; fill: rgb(255, 255, 255);" d="M -287.92 1076.996 C -362.6 1055.127 -340.742 933.091 -340.742 933.091 C -229.624 834.729 376.95 643.455 535.424 723.611 C 575.949 780.99 573.676 838.357 526.32 902.129 C 479.914 964.6 116.473 1013.235 -287.92 1076.996"/>
        <path id="path-53" style="fill: rgb(212, 218, 216); fill-opacity: 1; fill-rule: nonzero; stroke: none;" d="M 488.068 869.342 C 485.915 868.555 481.073 878.763 470.133 892.555 C 464.908 899.615 457.422 907.047 449.028 915.003 C 440.252 922.643 430.131 930.479 418.754 937.703 C 395.857 951.955 372.971 961.125 355.911 966.065 C 338.884 971.191 327.714 972.786 327.769 974.972 C 327.736 976.743 339.43 978.809 358.118 976.022 C 376.742 973.399 401.934 965.169 426.415 949.901 C 438.602 942.184 449.258 933.386 458.187 924.61 C 466.788 915.462 474.002 906.697 478.559 898.292 C 488.155 881.767 489.663 869.801 488.068 869.342"/>
        <path id="path-56" style="fill: rgb(150, 113, 96); fill-opacity: 1; fill-rule: nonzero; stroke: none;" d="M -406.601 2181.758 C -406.82 2180.807 -409.421 2180.534 -414.186 2181.211 C -418.755 2182.293 -425.782 2184.599 -432.252 2191.233 C -438.635 2197.572 -444.176 2209.135 -441.051 2222.207 C -439.564 2228.611 -435.684 2235.082 -429.772 2239.475 L -426.263 2241.891 L -426.219 2241.956 L -426.241 2241.869 C -426.362 2242.546 -426.493 2244.404 -426.853 2245.585 C -429.061 2256.252 -433.269 2266.372 -438.865 2273.028 C -441.531 2276.536 -444.876 2278.307 -446.275 2278.427 C -447.466 2278.777 -449.543 2277.258 -451.105 2274.351 C -453.925 2268.46 -455.248 2262.055 -456.122 2257.869 C -457.04 2253.574 -458.024 2251.104 -459.018 2251.082 C -460.013 2251.049 -460.931 2253.476 -461.729 2258.055 C -462.231 2260.328 -462.363 2263.181 -462.286 2266.558 C -462.406 2269.891 -461.794 2273.87 -460.483 2278.362 C -459.379 2280.635 -458.887 2283.061 -456.406 2285.466 C -454.679 2287.87 -450.734 2290.132 -446.996 2290.34 C -438.996 2290.723 -433.236 2286.285 -429.116 2282.045 C -420.591 2273.116 -415.454 2261.268 -412.722 2248.383 C -412.263 2246.645 -412.219 2245.475 -411.913 2243.213 C -411.541 2240.218 -411.17 2237.257 -410.809 2234.306 L -410.667 2233.202 L -411.618 2232.743 L -413.618 2231.89 L -417.596 2230.185 L -419.498 2229.366 L -420.132 2228.928 L -421.422 2228.098 C -424.755 2225.792 -427.061 2222.458 -428.23 2218.764 C -430.711 2211.234 -428.307 2203.157 -424.449 2197.78 C -416.35 2186.654 -405.749 2184.042 -406.601 2181.758"/>
        <path id="path-107" style="fill: rgb(150, 113, 96); fill-opacity: 1; fill-rule: nonzero; stroke: none;" d="M -193.557 2069.306 C -192.333 2065.448 -202.18 2059.011 -214.869 2053.317 C -221.405 2050.716 -227.121 2048.453 -231.711 2047.371 C -236.334 2046.344 -239.832 2046.497 -240.892 2048.169 C -241.974 2049.841 -240.356 2052.77 -236.717 2056.235 C -233.11 2059.776 -227.449 2063.798 -220.64 2066.519 C -207.142 2072.574 -194.704 2073.044 -193.557 2069.306"/>
        <path id="path-4" style="fill: rgb(47, 29, 74); fill-opacity: 1; fill-rule: evenodd; stroke: none;" d="M -263.375 1155.565 L -263.098 1155.588 L -262.945 1155.588 L -262.638 1155.611 L -262.522 1155.611 L -262.185 1155.627 L -262.085 1155.657 L -261.732 1155.673 L -261.655 1155.673 L -261.279 1155.711 L -261.217 1155.711 L -260.818 1155.757 L -260.787 1155.757 L -260.365 1155.834 L -260.357 1155.834 L -259.935 1155.872 L -259.912 1155.872 L -259.521 1155.934 L -259.475 1155.934 L -259.098 1156.003 L -259.029 1156.003 L -258.676 1156.072 L -258.262 1156.156 L -258.147 1156.179 L -257.832 1156.248 L -257.701 1156.271 L -257.425 1156.31 L -257.264 1156.364 L -257.003 1156.425 L -256.189 1156.602 L -255.966 1156.671 L -255.774 1156.717 L -255.529 1156.786 L -255.367 1156.824 L -255.099 1156.916 L -254.953 1156.939 L -254.677 1157.024 L -254.561 1157.062 L -254.247 1157.154 L -254.162 1157.177 L -253.832 1157.285 L -253.763 1157.308 L -253.41 1157.423 L -253.364 1157.446 L -252.995 1157.577 L -252.965 1157.577 L -252.573 1157.73 L -252.573 1157.73 L -252.182 1157.868 L -252.166 1157.891 L -251.79 1158.022 L -251.759 1158.045 L -251.398 1158.175 L -251.352 1158.198 L -251.03 1158.352 L -250.938 1158.375 L -250.638 1158.505 L -250.539 1158.552 L -250.262 1158.682 L -250.139 1158.728 L -249.886 1158.843 L -249.74 1158.905 L -249.51 1159.02 L -249.341 1159.104 L -249.141 1159.212 L -248.942 1159.304 L -248.758 1159.396 L -248.558 1159.511 L -248.389 1159.573 L -248.174 1159.703 L -248.028 1159.764 L -247.783 1159.903 L -247.66 1159.972 L -247.406 1160.125 L -247.307 1160.171 L -247.03 1160.325 L -246.938 1160.371 L -246.654 1160.548 L -246.585 1160.594 L -246.27 1160.77 L -246.232 1160.809 L -245.902 1161.008 L -245.879 1161.008 L -245.533 1161.231 L -245.533 1161.231 L -245.188 1161.476 L -245.165 1161.476 L -244.85 1161.691 L -244.819 1161.722 L -244.505 1161.914 L -244.451 1161.96 L -244.175 1162.16 L -244.098 1162.206 L -243.829 1162.405 L -243.737 1162.474 L -243.499 1162.643 L -243.399 1162.735 L -243.184 1162.889 L -243.046 1162.973 L -242.846 1163.135 L -242.701 1163.242 L -242.524 1163.403 L -242.37 1163.534 L -242.202 1163.664 L -242.025 1163.803 L -241.887 1163.91 L -241.695 1164.087 L -241.58 1164.171 L -241.365 1164.371 L -241.265 1164.463 L -241.042 1164.639 L -240.958 1164.731 L -240.72 1164.954 L -240.658 1164.992 L -240.397 1165.238 L -240.344 1165.284 L -240.075 1165.522 L -240.044 1165.568 L -239.768 1165.837 L -239.76 1165.86 L -239.461 1166.144 C -232.92 1172.677 -228.851 1181.713 -228.851 1191.631 L -228.851 1267.233 L -237.012 1267.233 L -237.012 1314.784 C -237.012 1343.143 -248.328 1370.043 -268.349 1390.056 C -288.363 1410.093 -315.278 1421.401 -343.621 1421.401 C -371.972 1421.401 -398.865 1410.093 -418.894 1390.056 C -438.915 1370.043 -450.216 1343.143 -450.216 1314.784 L -450.216 1267.233 L -458.384 1267.233 L -458.384 1191.631 C -458.384 1181.713 -454.315 1172.677 -447.774 1166.144 L -447.483 1165.86 L -447.467 1165.837 L -447.183 1165.568 L -447.153 1165.522 L -446.884 1165.284 L -446.838 1165.238 L -446.585 1164.992 L -446.523 1164.954 L -446.285 1164.731 L -446.201 1164.639 L -445.978 1164.463 L -445.871 1164.371 L -445.656 1164.171 L -445.548 1164.087 L -445.349 1163.91 L -445.203 1163.803 L -445.026 1163.664 L -444.873 1163.534 L -444.719 1163.403 L -444.527 1163.242 L -444.389 1163.135 L -444.189 1162.973 L -444.066 1162.889 L -443.844 1162.735 L -443.736 1162.643 L -443.491 1162.474 L -443.399 1162.405 L -443.145 1162.206 L -443.068 1162.16 L -442.777 1161.96 L -442.723 1161.914 L -442.424 1161.722 L -442.393 1161.691 L -442.063 1161.476 L -442.047 1161.476 L -441.71 1161.231 L -441.694 1161.231 L -441.349 1161.008 L -441.326 1161.008 L -440.996 1160.809 L -440.957 1160.77 L -440.643 1160.594 L -440.589 1160.548 L -440.289 1160.371 L -440.213 1160.325 L -439.936 1160.171 L -439.837 1160.125 L -439.568 1159.972 L -439.453 1159.903 L -439.215 1159.764 L -439.061 1159.703 L -438.846 1159.573 L -438.67 1159.511 L -438.478 1159.396 L -438.286 1159.304 L -438.102 1159.212 L -437.902 1159.104 L -437.733 1159.02 L -437.503 1158.905 L -437.357 1158.843 L -437.104 1158.728 L -436.981 1158.682 L -436.704 1158.552 L -436.605 1158.505 L -436.297 1158.375 L -436.221 1158.352 L -435.898 1158.198 L -435.829 1158.175 L -435.484 1158.045 L -435.438 1158.022 L -435.077 1157.891 L -435.054 1157.868 L -434.67 1157.73 L -434.655 1157.73 L -434.263 1157.577 L -434.248 1157.577 L -433.872 1157.446 L -433.825 1157.423 L -433.488 1157.308 L -433.403 1157.285 L -433.081 1157.177 L -432.981 1157.154 L -432.682 1157.062 L -432.566 1157.024 L -432.275 1156.939 L -432.129 1156.916 L -431.868 1156.824 L -431.714 1156.786 L -431.469 1156.717 L -431.284 1156.671 L -431.062 1156.602 L -430.847 1156.563 L -430.647 1156.509 L -430.417 1156.448 L -430.225 1156.425 L -429.972 1156.364 L -429.818 1156.31 L -429.526 1156.271 L -429.396 1156.248 L -429.096 1156.179 L -428.989 1156.156 L -428.659 1156.095 L -428.574 1156.072 L -428.198 1156.003 L -428.145 1156.003 L -427.761 1155.934 L -427.722 1155.934 L -427.315 1155.872 L -427.308 1155.872 L -426.878 1155.834 L -426.862 1155.834 L -426.44 1155.757 L -426.417 1155.757 L -426.026 1155.711 L -425.964 1155.711 L -425.588 1155.673 L -425.511 1155.673 L -425.158 1155.657 L -425.051 1155.627 L -424.728 1155.611 L -424.59 1155.611 L -424.291 1155.588 L -424.137 1155.588 L -423.853 1155.565 L -423.853 1163.004 C -423.853 1170.282 -417.904 1176.239 -410.626 1176.239 L -410.296 1176.239 C -403.01 1176.239 -397.053 1170.282 -397.053 1163.004 L -397.053 1135.544 C -397.053 1128.266 -403.01 1122.309 -410.296 1122.309 L -410.626 1122.309 C -417.904 1122.309 -423.853 1128.266 -423.853 1135.544 L -423.853 1143.052 L -424.16 1143.052 L -424.452 1143.075 L -424.782 1143.075 L -425.051 1143.098 L -425.396 1143.121 L -425.642 1143.144 L -426.018 1143.167 L -426.233 1143.19 L -426.632 1143.205 L -426.816 1143.228 L -427.239 1143.274 L -427.415 1143.297 L -427.86 1143.344 L -427.991 1143.367 L -428.459 1143.405 L -428.582 1143.428 L -429.066 1143.497 L -429.166 1143.52 L -429.665 1143.589 L -429.741 1143.612 L -430.271 1143.674 L -430.317 1143.697 L -430.87 1143.789 L -430.893 1143.789 L -431.461 1143.896 L -432.037 1144.011 L -432.052 1144.011 L -432.597 1144.142 L -432.651 1144.142 L -433.165 1144.249 L -433.234 1144.272 L -433.726 1144.38 L -433.825 1144.411 L -434.286 1144.541 L -434.401 1144.564 L -434.839 1144.672 L -434.992 1144.718 L -435.399 1144.825 L -435.568 1144.871 L -435.952 1144.979 L -436.136 1145.048 L -436.505 1145.155 L -436.704 1145.224 L -437.057 1145.34 L -437.28 1145.401 L -437.603 1145.516 L -437.848 1145.578 L -438.14 1145.685 L -438.393 1145.777 L -438.67 1145.892 L -438.961 1145.977 L -439.215 1146.069 L -439.514 1146.199 L -439.744 1146.284 L -440.067 1146.399 L -440.282 1146.483 L -440.627 1146.614 L -440.796 1146.706 L -441.165 1146.86 L -441.326 1146.929 L -441.71 1147.082 L -441.856 1147.151 L -442.247 1147.328 L -442.37 1147.366 L -442.792 1147.574 L -442.877 1147.612 L -443.322 1147.835 L -443.391 1147.858 L -443.859 1148.103 L -443.898 1148.126 L -444.374 1148.349 L -444.412 1148.364 L -444.896 1148.633 L -444.903 1148.633 L -445.402 1148.902 L -445.418 1148.902 L -445.901 1149.163 L -445.932 1149.186 L -446.393 1149.454 L -446.446 1149.477 L -446.876 1149.746 L -446.945 1149.784 L -447.36 1150.03 L -447.452 1150.076 L -447.844 1150.322 L -447.951 1150.383 L -448.32 1150.629 L -448.442 1150.69 L -448.788 1150.928 L -448.934 1151.028 L -449.256 1151.243 L -449.425 1151.358 L -449.717 1151.558 L -449.909 1151.688 L -450.185 1151.865 L -450.385 1152.018 L -450.646 1152.195 L -450.861 1152.356 L -451.099 1152.525 L -451.329 1152.702 L -451.552 1152.863 L -451.789 1153.063 L -451.997 1153.216 L -452.258 1153.416 L -452.434 1153.554 L -452.711 1153.792 L -452.88 1153.907 L -453.164 1154.145 L -453.31 1154.275 L -453.617 1154.529 L -453.739 1154.636 L -454.062 1154.897 L -454.162 1154.989 L -454.492 1155.297 L -454.576 1155.366 L -454.937 1155.673 L -454.998 1155.742 L -455.359 1156.072 L -455.413 1156.118 L -455.789 1156.471 L -455.82 1156.509 L -456.211 1156.893 L -456.219 1156.893 L -456.618 1157.285 C -465.416 1166.098 -470.882 1178.251 -470.882 1191.631 L -470.882 1267.233 L -479.058 1267.233 L -479.058 1314.784 C -479.058 1350.781 -464.717 1385.005 -439.284 1410.446 C -417.95 1431.788 -390.435 1445.315 -360.879 1449.123 L -360.879 1492.912 L -328.567 1492.912 L -328.567 1449.384 C -298.166 1445.983 -269.823 1432.318 -247.959 1410.446 C -222.518 1385.005 -208.193 1350.781 -208.193 1314.784 L -208.193 1267.233 L -216.353 1267.233 L -216.353 1191.631 C -216.353 1178.251 -221.819 1166.098 -230.617 1157.285 L -231.016 1156.893 L -231.039 1156.893 L -231.423 1156.509 L -231.454 1156.471 L -231.838 1156.118 L -231.876 1156.072 L -232.245 1155.742 L -232.306 1155.673 L -232.651 1155.366 L -232.744 1155.297 L -233.074 1154.989 L -233.181 1154.897 L -233.504 1154.636 L -233.626 1154.529 L -233.918 1154.275 L -234.072 1154.145 L -234.363 1153.907 L -234.525 1153.792 L -234.801 1153.554 L -234.978 1153.416 L -235.239 1153.216 L -235.438 1153.063 L -235.684 1152.863 L -235.906 1152.702 L -236.137 1152.525 L -236.382 1152.356 L -236.597 1152.195 L -236.858 1152.018 L -237.043 1151.865 L -237.334 1151.688 L -237.511 1151.558 L -237.803 1151.358 L -237.979 1151.243 L -238.309 1151.028 L -238.448 1150.928 L -238.793 1150.69 L -238.908 1150.629 L -239.292 1150.383 L -239.384 1150.322 L -239.791 1150.076 L -239.875 1150.03 L -240.29 1149.784 L -240.351 1149.746 L -240.797 1149.477 L -240.843 1149.454 L -241.311 1149.186 L -241.342 1149.163 L -241.818 1148.902 L -241.825 1148.902 L -242.324 1148.633 L -242.34 1148.633 L -242.831 1148.364 L -242.854 1148.349 L -243.338 1148.126 L -243.384 1148.103 L -243.844 1147.858 L -243.921 1147.835 L -244.351 1147.612 L -244.451 1147.574 L -244.873 1147.366 L -244.988 1147.328 L -245.387 1147.151 L -245.518 1147.082 L -245.917 1146.929 L -246.071 1146.86 L -246.432 1146.706 L -246.608 1146.614 L -246.961 1146.483 L -247.161 1146.399 L -247.499 1146.284 L -247.714 1146.199 L -248.028 1146.069 L -248.274 1145.977 L -248.558 1145.892 L -248.834 1145.777 L -249.103 1145.685 L -249.395 1145.578 L -249.64 1145.516 L -249.963 1145.401 L -250.186 1145.34 L -250.523 1145.224 L -250.738 1145.155 L -251.099 1145.048 L -251.276 1144.979 L -251.683 1144.871 L -251.836 1144.825 L -252.258 1144.718 L -252.389 1144.672 L -252.826 1144.564 L -252.949 1144.541 L -253.418 1144.411 L -253.502 1144.38 L -254.001 1144.272 L -254.07 1144.249 L -254.592 1144.142 L -254.63 1144.142 L -255.183 1144.011 L -255.214 1144.011 L -255.774 1143.896 L -256.35 1143.789 L -256.373 1143.789 L -256.926 1143.697 L -256.972 1143.674 L -257.502 1143.612 L -257.571 1143.589 L -258.077 1143.52 L -258.17 1143.497 L -258.661 1143.428 L -258.768 1143.405 L -259.237 1143.367 L -259.383 1143.344 L -259.828 1143.297 L -259.989 1143.274 L -260.411 1143.228 L -260.611 1143.205 L -260.995 1143.19 L -261.217 1143.167 L -261.601 1143.144 L -261.839 1143.121 L -262.192 1143.098 L -262.446 1143.075 L -262.783 1143.075 L -263.067 1143.052 L -263.375 1143.052 L -263.375 1135.544 C -263.375 1128.266 -269.332 1122.309 -276.617 1122.309 L -276.947 1122.309 C -284.233 1122.309 -290.182 1128.266 -290.182 1135.544 L -290.182 1163.004 C -290.182 1170.282 -284.233 1176.239 -276.947 1176.239 L -276.617 1176.239 C -269.332 1176.239 -263.375 1170.282 -263.375 1163.004 L -263.375 1155.565"/>
        <g transform="matrix(0.999999, 0, 0, 0.999999, -8497.675781, -2397.952881)">
          <path id="path-5" style="fill:#2f1d4a;fill-opacity:1;fill-rule:evenodd;stroke:none" d="M 8625.505 3631.922 C 8625.505 3626.652 8629.795 3622.352 8635.085 3622.352 C 8640.365 3622.352 8644.655 3626.652 8644.655 3631.922 L 8644.655 4061.581 C 8644.655 4111.501 8624.245 4156.861 8591.365 4189.74 C 8572.015 4209.09 8548.345 4224.15 8521.965 4233.22 L 8521.965 4212.81 C 8543.065 4204.53 8562.055 4191.99 8577.805 4176.211 C 8607.245 4146.771 8625.505 4106.201 8625.505 4061.581 L 8625.505 3631.922"/>
          <path id="path-10" style="fill:#2f1d4a;fill-opacity:1;fill-rule:evenodd;stroke:none" d="M 8641.872 3490.736 C 8616.492 3490.736 8595.792 3511.426 8595.792 3536.836 C 8595.792 3562.216 8616.492 3582.925 8641.872 3582.925 C 8667.262 3582.925 8687.982 3562.216 8687.982 3536.836 C 8687.982 3511.426 8667.262 3490.736 8641.872 3490.736"/>
        </g>
        <path id="path-2" style="fill: rgb(47, 29, 74); fill-opacity: 1; fill-rule: evenodd; stroke: none;" d="M -215.226 1831.194 C -215.226 1834.876 -209.196 1837.884 -201.831 1837.884 C -194.481 1837.884 -188.466 1834.876 -188.466 1831.194 L -188.466 1530.467 C -188.466 1495.51 -217.018 1463.777 -262.926 1440.745 C -289.941 1427.2 -322.993 1416.662 -359.871 1410.317 L -359.871 1424.59 C -330.411 1430.395 -303.876 1439.185 -281.841 1450.232 C -240.741 1470.842 -215.226 1499.23 -215.226 1530.467 L -215.226 1831.194" transform="matrix(-1, 0, 0, -1, -548.337006, 3248.20105)"/>
      </g>
    </g>
  </g>
  <g transform="matrix(0.808203, 0, 0, 0.808203, 3326.817209, -897.779194)">
    <path id="path-90" style="fill:#fafdff;fill-opacity:1;fill-rule:nonzero;stroke:none" d="M -3663.907 1252.648 C -3667.851 1245.306 -3670.091 1236.907 -3670.091 1227.988 C -3670.091 1199.171 -3646.728 1175.81 -3617.912 1175.81 C -3594.743 1175.81 -3575.1 1190.913 -3568.291 1211.809 C -3603.152 1219.103 -3635.5 1233.196 -3663.907 1252.648"/>
    <path id="path-91" style="fill:#e3f6fd;fill-opacity:1;fill-rule:nonzero;stroke:none" d="M -3631.413 1273.815 C -3634.84 1273.815 -3638.135 1271.915 -3639.759 1268.636 C -3642.037 1264.031 -3640.152 1258.451 -3635.547 1256.172 C -3634.22 1255.515 -3632.813 1255.204 -3631.427 1255.204 C -3628 1255.204 -3624.704 1257.104 -3623.081 1260.382 C -3620.803 1264.988 -3622.688 1270.568 -3627.293 1272.847 C -3628.62 1273.503 -3630.028 1273.815 -3631.413 1273.815"/>
    <path id="path-92" style="fill:#2b3c9b;fill-opacity:1;fill-rule:nonzero;stroke:none" d="M -3617.911 1176.386 C -3646.365 1176.386 -3669.513 1199.534 -3669.513 1227.987 C -3669.513 1256.442 -3646.365 1279.59 -3617.911 1279.59 C -3589.457 1279.59 -3566.31 1256.442 -3566.31 1227.987 C -3566.31 1199.534 -3589.457 1176.386 -3617.911 1176.386 Z M -3617.911 1280.742 C -3647.001 1280.742 -3670.667 1257.076 -3670.667 1227.987 C -3670.667 1198.898 -3647.001 1175.234 -3617.911 1175.234 C -3588.823 1175.234 -3565.158 1198.898 -3565.158 1227.987 C -3565.158 1257.076 -3588.823 1280.742 -3617.911 1280.742"/>
    <path id="path-93" style="fill-opacity: 1; fill-rule: nonzero; stroke: none; fill: rgb(185, 14, 117);" d="M -3607.588 1246.351 C -3602.075 1250.003 -3594.645 1248.496 -3590.993 1242.983 C -3587.34 1237.471 -3588.848 1230.042 -3594.36 1226.39 L -3610.579 1215.643 L -3623.805 1235.604 L -3607.588 1246.351"/>
    <path id="path-94" style="fill-opacity: 1; fill-rule: nonzero; stroke: none; fill: rgb(185, 14, 117);" d="M -3631.313 1222.551 C -3630.629 1221.517 -3629.235 1221.234 -3628.201 1221.919 C -3627.169 1222.603 -3626.887 1223.997 -3627.571 1225.03 C -3628.256 1226.063 -3629.648 1226.346 -3630.683 1225.662 C -3631.716 1224.977 -3631.999 1223.583 -3631.313 1222.551 Z M -3643.789 1214.283 C -3643.104 1213.25 -3641.712 1212.967 -3640.677 1213.653 C -3639.644 1214.337 -3639.363 1215.73 -3640.047 1216.763 C -3640.731 1217.797 -3642.124 1218.079 -3643.157 1217.395 C -3644.192 1216.71 -3644.475 1215.318 -3643.789 1214.283 Z M -3632.997 1214.253 C -3632.312 1213.219 -3630.92 1212.937 -3629.885 1213.622 C -3628.852 1214.307 -3628.569 1215.701 -3629.255 1216.734 C -3629.94 1217.766 -3631.333 1218.05 -3632.365 1217.365 C -3633.399 1216.679 -3633.681 1215.287 -3632.997 1214.253 Z M -3623.032 1215.47 C -3622.347 1214.437 -3620.953 1214.154 -3619.92 1214.839 C -3618.887 1215.523 -3618.604 1216.917 -3619.289 1217.951 C -3619.975 1218.985 -3621.367 1219.266 -3622.4 1218.582 C -3623.433 1217.898 -3623.716 1216.503 -3623.032 1215.47 Z M -3635.928 1205.13 C -3635.244 1204.097 -3633.851 1203.814 -3632.817 1204.498 C -3631.783 1205.183 -3631.501 1206.577 -3632.185 1207.61 C -3632.871 1208.643 -3634.264 1208.926 -3635.297 1208.242 C -3636.331 1207.557 -3636.613 1206.163 -3635.928 1205.13 Z M -3613.073 1213.99 L -3629.292 1203.243 C -3634.805 1199.591 -3642.233 1201.098 -3645.887 1206.61 C -3649.539 1212.122 -3648.032 1219.551 -3642.519 1223.203 L -3626.301 1233.951 L -3613.073 1213.99"/>
  </g>
  <g transform="matrix(0.808203, 0, 0, 0.808203, 3247.406075, -780.587785)">
    <path id="path-95" style="fill:#fafdff;fill-opacity:1;fill-rule:nonzero;stroke:none" d="M -3360.713 1277.16 C -3381.197 1270.151 -3395.927 1250.731 -3395.927 1227.871 C -3395.927 1199.107 -3372.609 1175.789 -3343.846 1175.789 C -3336.307 1175.789 -3329.144 1177.39 -3322.676 1180.271 C -3341.279 1209.218 -3354.443 1241.998 -3360.713 1277.16"/>
    <path id="path-96" style="fill:#2b3c9b;fill-opacity:1;fill-rule:nonzero;stroke:none" d="M -3343.845 1176.365 C -3372.246 1176.365 -3395.352 1199.47 -3395.352 1227.871 C -3395.352 1256.271 -3372.246 1279.376 -3343.845 1279.376 C -3315.445 1279.376 -3292.34 1256.271 -3292.34 1227.871 C -3292.34 1199.47 -3315.445 1176.365 -3343.845 1176.365 Z M -3343.845 1280.527 C -3372.881 1280.527 -3396.502 1256.906 -3396.502 1227.871 C -3396.502 1198.837 -3372.881 1175.214 -3343.845 1175.214 C -3314.81 1175.214 -3291.189 1198.837 -3291.189 1227.871 C -3291.189 1256.906 -3314.81 1280.527 -3343.845 1280.527"/>
    <path id="path-97" style="fill:#f145ab;fill-opacity:1;fill-rule:nonzero;stroke:none" d="M -3340.015 1226.698 L -3343.857 1226.698 L -3343.857 1222.854 L -3347.7 1222.854 L -3347.7 1226.698 L -3351.543 1226.698 L -3351.543 1230.541 L -3347.7 1230.541 L -3347.7 1234.383 L -3343.857 1234.383 L -3343.857 1230.541 L -3340.015 1230.541 L -3340.015 1226.698"/>
    <path id="path-98" style="fill-opacity: 1; fill-rule: nonzero; stroke: none; fill: rgb(185, 14, 117);" d="M -3345.203 1237.842 C -3350.296 1237.842 -3354.425 1233.713 -3354.425 1228.618 C -3354.425 1223.526 -3350.296 1219.395 -3345.203 1219.395 C -3340.109 1219.395 -3335.979 1223.526 -3335.979 1228.618 C -3335.979 1233.713 -3340.109 1237.842 -3345.203 1237.842 Z M -3323.14 1211.326 L -3366.112 1211.326 C -3368.572 1211.326 -3370.566 1213.319 -3370.566 1215.779 L -3370.566 1242.611 C -3370.566 1245.07 -3368.572 1247.064 -3366.112 1247.064 L -3323.14 1247.064 C -3320.68 1247.064 -3318.686 1245.07 -3318.686 1242.611 L -3318.686 1215.779 C -3318.686 1213.319 -3320.68 1211.326 -3323.14 1211.326"/>
    <path id="path-99" style="fill:#f145ab;fill-opacity:1;fill-rule:nonzero;stroke:none" d="M -3332.809 1213.631 L -3335.115 1213.631 L -3335.115 1211.443 C -3335.115 1209.135 -3336.02 1207.867 -3336.32 1207.867 L -3352.931 1207.867 C -3353.231 1207.867 -3354.137 1209.135 -3354.137 1211.443 L -3354.137 1213.631 L -3356.443 1213.631 L -3356.443 1211.443 C -3356.443 1208.09 -3354.933 1205.561 -3352.931 1205.561 L -3336.32 1205.561 C -3334.319 1205.561 -3332.809 1208.09 -3332.809 1211.443 L -3332.809 1213.631"/>
  </g>
  <g transform="matrix(0.808203, 0, 0, 0.808203, 2992.029116, -508.454875)">
    <path id="path-100" style="fill:#fafdff;fill-opacity:1;fill-rule:nonzero;stroke:none" d="M -3750.772 1174.958 C -3752.267 1139.529 -3760.669 1105.898 -3774.672 1075.357 C -3773.776 1075.312 -3772.875 1075.289 -3771.967 1075.289 C -3743.203 1075.289 -3719.886 1098.606 -3719.886 1127.37 C -3719.886 1148.586 -3732.571 1166.839 -3750.772 1174.958"/>
    <path id="path-101" style="fill:#e3f6fd;fill-opacity:1;fill-rule:nonzero;stroke:none" d="M -3755.369 1135.566 L -3762.213 1133.524 C -3763.116 1130.657 -3761.823 1127.484 -3759.045 1126.109 C -3758.543 1125.861 -3758.021 1125.686 -3757.496 1125.582 C -3756.724 1128.889 -3756.016 1132.213 -3755.369 1135.566"/>
    <path id="path-102" style="fill:#ebf9fe;fill-opacity:1;fill-rule:nonzero;stroke:none" d="M -3756.289 1137.872 C -3758.573 1137.872 -3760.772 1136.605 -3761.852 1134.418 C -3761.997 1134.125 -3762.117 1133.826 -3762.213 1133.524 L -3755.369 1135.566 C -3755.231 1136.281 -3755.093 1137.01 -3754.961 1137.726 C -3755.403 1137.824 -3755.847 1137.872 -3756.289 1137.872"/>
    <path id="path-103" style="fill:#2b3c9b;fill-opacity:1;fill-rule:nonzero;stroke:none" d="M -3771.965 1075.864 C -3800.367 1075.864 -3823.473 1098.969 -3823.473 1127.37 C -3823.473 1155.77 -3800.367 1178.875 -3771.965 1178.875 C -3743.567 1178.875 -3720.46 1155.77 -3720.46 1127.37 C -3720.46 1098.969 -3743.567 1075.864 -3771.965 1075.864 Z M -3771.965 1180.026 C -3801.003 1180.026 -3824.624 1156.405 -3824.624 1127.37 C -3824.624 1098.334 -3801.003 1074.713 -3771.965 1074.713 C -3742.932 1074.713 -3719.31 1098.334 -3719.31 1127.37 C -3719.31 1156.405 -3742.932 1180.026 -3771.965 1180.026"/>
    <path id="path-104" style="fill-opacity: 1; fill-rule: nonzero; stroke: none; fill: rgb(185, 14, 117);" d="M -3753.692 1106.404 C -3754.033 1105.556 -3755.201 1102.509 -3755.868 1099.016 L -3744.523 1109.453 C -3748.385 1108.657 -3751.599 1107.306 -3751.609 1107.302 C -3751.736 1107.24 -3752.497 1106.868 -3753.692 1106.404 Z M -3765.588 1106.968 C -3761.891 1106.641 -3758.113 1107.606 -3755.607 1108.478 C -3754.919 1110.072 -3753.387 1114.09 -3753.229 1118.376 Z M -3758.973 1129.349 L -3774.883 1114.537 C -3774.625 1113.053 -3774.071 1111.658 -3773.088 1110.476 L -3755.577 1126.778 L -3755.775 1127.057 C -3756.68 1128.144 -3757.773 1128.878 -3758.973 1129.349 Z M -3772.037 1128.041 C -3772.848 1126.388 -3775.244 1121.054 -3775.051 1116.15 L -3760.412 1129.78 C -3764.388 1130.642 -3769.097 1129.214 -3772.037 1128.041 Z M -3772.588 1140.354 L -3786.485 1127.526 C -3783.409 1126.99 -3779.841 1127.492 -3776.059 1129.058 C -3775.817 1129.188 -3775.061 1129.58 -3773.959 1130.06 C -3772.463 1133.801 -3772.015 1137.324 -3772.588 1140.354 Z M -3775.523 1146.168 C -3776.677 1147.364 -3778.08 1148.25 -3779.62 1148.806 L -3795.092 1134.524 C -3794.533 1133.016 -3793.663 1131.636 -3792.485 1130.5 C -3791.216 1129.276 -3789.697 1128.409 -3787.999 1127.89 L -3772.945 1141.786 C -3773.467 1143.444 -3774.324 1144.924 -3775.523 1146.168 Z M -3787.996 1148.69 C -3789.961 1147.953 -3791.879 1147.353 -3793.697 1146.864 C -3794.077 1145.6 -3794.512 1144.298 -3795.009 1142.973 C -3795.889 1140.626 -3796.017 1138.17 -3795.496 1135.913 L -3781.08 1149.218 C -3783.299 1149.701 -3785.701 1149.552 -3787.996 1148.69 Z M -3794.463 1154.952 L -3802.452 1147.762 C -3800.567 1148.012 -3798.292 1148.404 -3795.784 1149.013 C -3795.197 1151.154 -3794.773 1153.16 -3794.463 1154.952 Z M -3767.235 1107.209 L -3753.252 1120.116 C -3753.369 1122.056 -3753.815 1123.988 -3754.827 1125.708 L -3772.181 1109.55 L -3772.08 1109.457 C -3770.635 1108.252 -3768.967 1107.568 -3767.235 1107.209 Z M -3736.395 1112.321 L -3736.903 1109.782 C -3738.542 1110.108 -3740.38 1110.065 -3742.188 1109.84 L -3756.184 1096.962 C -3756.388 1095.218 -3756.415 1093.457 -3756.099 1091.88 L -3758.639 1091.372 C -3759.597 1096.162 -3757.959 1102.104 -3756.841 1105.354 C -3761.588 1104.022 -3768.6 1103.186 -3773.739 1107.466 C -3779.86 1112.569 -3777.491 1121.598 -3775.565 1126.474 C -3783.009 1123.548 -3789.805 1124.317 -3794.284 1128.636 C -3798.239 1132.452 -3799.476 1138.437 -3797.435 1143.884 C -3797.147 1144.648 -3796.889 1145.402 -3796.644 1146.15 C -3803.007 1144.753 -3807.609 1144.724 -3807.877 1144.724 L -3807.877 1147.313 C -3807.845 1147.313 -3806.648 1147.322 -3804.673 1147.508 L -3794.141 1156.986 C -3793.645 1160.522 -3793.631 1162.81 -3793.631 1162.855 L -3791.041 1162.854 C -3791.041 1162.687 -3791.049 1160.863 -3791.388 1157.987 L -3791.255 1157.839 L -3791.427 1157.685 C -3791.691 1155.525 -3792.143 1152.816 -3792.9 1149.788 C -3791.601 1150.17 -3790.267 1150.606 -3788.905 1151.117 C -3787.163 1151.77 -3785.363 1152.088 -3783.597 1152.088 C -3779.849 1152.088 -3776.252 1150.656 -3773.659 1147.966 C -3769.735 1143.897 -3768.737 1137.91 -3770.784 1131.268 C -3765.719 1132.928 -3758.248 1134.073 -3753.784 1128.717 C -3751.904 1126.462 -3751.016 1123.846 -3750.717 1121.221 L -3750.456 1120.937 L -3750.668 1120.74 C -3750.308 1116.614 -3751.355 1112.521 -3752.296 1109.817 C -3750.451 1110.56 -3742.491 1113.538 -3736.395 1112.321"/>
    <path id="path-105" style="fill:#f145ab;fill-opacity:1;fill-rule:nonzero;stroke:none" d="M -3791.897 1130.002 L -3792.775 1130.953 L -3775.939 1146.494 L -3775.061 1145.544 L -3791.897 1130.002"/>
  </g>
  <g transform="matrix(0.808203, 0, 0, 0.808203, 3042.396061, -514.378978)">
    <path id="path-106" style="fill:#fafdff;fill-opacity:1;fill-rule:nonzero;stroke:none" d="M -3767.125 1402.07 C -3776.818 1402.07 -3785.893 1399.421 -3793.665 1394.809 C -3772.151 1378.38 -3753.225 1358.765 -3737.567 1336.647 L -3737.567 1336.647 C -3733.382 1330.733 -3729.427 1324.64 -3725.725 1318.385 C -3719.023 1327.149 -3715.043 1338.103 -3715.043 1349.988 C -3715.043 1378.752 -3738.361 1402.07 -3767.125 1402.07"/>
    <path id="path-108" style="fill:#ebf9fe;fill-opacity:1;fill-rule:nonzero;stroke:none" d="M -3761.275 1343.331 L -3772.259 1340.103 C -3771.714 1339.431 -3771.019 1338.863 -3770.193 1338.453 C -3769.309 1338.016 -3768.37 1337.808 -3767.446 1337.808 C -3765.162 1337.808 -3762.965 1339.075 -3761.883 1341.26 C -3761.551 1341.929 -3761.353 1342.629 -3761.275 1343.331"/>
    <path id="path-109" style="fill:#2b3c9b;fill-opacity:1;fill-rule:nonzero;stroke:none" d="M -3764.649 1297.246 C -3793.051 1297.246 -3816.156 1320.351 -3816.156 1348.751 C -3816.156 1377.152 -3793.051 1400.257 -3764.649 1400.257 C -3736.248 1400.257 -3713.144 1377.152 -3713.144 1348.751 C -3713.144 1320.351 -3736.248 1297.246 -3764.649 1297.246 Z M -3764.649 1401.408 C -3793.687 1401.408 -3817.306 1377.787 -3817.306 1348.751 C -3817.306 1319.716 -3793.687 1296.095 -3764.649 1296.095 C -3735.616 1296.095 -3711.993 1319.716 -3711.993 1348.751 C -3711.993 1377.787 -3735.616 1401.408 -3764.649 1401.408"/>
    <path id="path-110" style="fill-opacity: 1; fill-rule: nonzero; stroke: none; fill: rgb(185, 14, 117);" d="M -3750.866 1353.327 C -3752.539 1353.327 -3753.894 1351.971 -3753.894 1350.297 C -3753.894 1348.625 -3752.539 1347.268 -3750.866 1347.268 C -3749.193 1347.268 -3747.835 1348.625 -3747.835 1350.297 C -3747.835 1351.971 -3749.193 1353.327 -3750.866 1353.327 Z M -3760.407 1381.195 C -3764.999 1381.195 -3768.737 1377.459 -3768.737 1372.864 L -3768.737 1356.449 C -3765.217 1355.465 -3761.721 1353.693 -3758.658 1351.381 C -3758.183 1354.819 -3755.497 1357.541 -3752.077 1358.071 L -3752.077 1372.864 C -3752.077 1377.459 -3755.814 1381.195 -3760.407 1381.195 Z M -3742.99 1350.297 C -3742.99 1345.969 -3746.482 1342.46 -3750.801 1342.424 C -3749.267 1339.587 -3748.139 1336.14 -3748.139 1332.123 C -3748.139 1323.012 -3753.739 1319.359 -3756.966 1318.009 C -3756.946 1317.868 -3756.923 1317.729 -3756.923 1317.583 C -3756.923 1315.911 -3758.279 1314.553 -3759.953 1314.553 C -3761.626 1314.553 -3762.982 1315.911 -3762.982 1317.583 C -3762.982 1319.255 -3761.626 1320.612 -3759.953 1320.612 C -3759.07 1320.612 -3758.283 1320.228 -3757.73 1319.627 C -3754.962 1320.727 -3749.957 1323.857 -3749.957 1332.123 C -3749.957 1335.517 -3751.046 1339.265 -3753.15 1342.76 C -3756.045 1343.637 -3758.226 1346.136 -3758.655 1349.196 C -3761.607 1351.685 -3765.285 1353.683 -3769.646 1354.808 C -3782.435 1351.507 -3789.335 1340.687 -3789.335 1332.123 C -3789.335 1322.797 -3782.962 1320.007 -3780.622 1319.297 C -3780.077 1320.089 -3779.165 1320.612 -3778.127 1320.612 C -3776.454 1320.612 -3775.099 1319.255 -3775.099 1317.583 C -3775.099 1315.911 -3776.454 1314.553 -3778.127 1314.553 C -3779.798 1314.553 -3781.153 1315.907 -3781.157 1317.576 C -3783.918 1318.461 -3791.154 1321.768 -3791.154 1332.123 C -3791.154 1339.473 -3787.39 1344.924 -3784.234 1348.201 C -3780.506 1352.073 -3775.554 1355.048 -3770.554 1356.445 L -3770.554 1372.864 C -3770.554 1378.46 -3766.002 1383.012 -3760.407 1383.012 C -3754.813 1383.012 -3750.259 1378.46 -3750.259 1372.864 L -3750.259 1358.143 C -3746.194 1357.832 -3742.99 1354.443 -3742.99 1350.297"/>
  </g>
  <g transform="matrix(0.808203, 0, 0, 0.808203, 2865.317444, -869.350726)">
    <path id="path-111" style="fill:#def5fd;fill-opacity:1;fill-rule:nonzero;stroke:none" d="M -3468.825 1321.982 C -3469.843 1320.646 -3470.931 1319.363 -3472.081 1318.143 L -3464.419 1312.503 C -3463.295 1313.746 -3462.221 1315.039 -3461.208 1316.377 L -3468.825 1321.982"/>
    <path id="path-112" style="fill-opacity: 1; fill-rule: nonzero; stroke: none; fill: rgba(65, 166, 18, 0.09);" d="M -3506.925 1398.834 C -3533.363 1398.834 -3554.794 1377.403 -3554.794 1350.965 C -3554.794 1334.885 -3546.864 1320.655 -3534.701 1311.975 C -3522.976 1342.161 -3505.925 1369.663 -3484.684 1393.364 C -3491.33 1396.858 -3498.896 1398.834 -3506.925 1398.834"/>
    <path id="path-113" style="fill:#e3f6fd;fill-opacity:1;fill-rule:nonzero;stroke:none" d="M -3493.299 1339.993 L -3496.277 1335.95 L -3472.081 1318.143 C -3470.931 1319.363 -3469.843 1320.646 -3468.825 1321.982 L -3493.299 1339.993"/>
    <path id="path-114" style="fill:#e3f6fd;fill-opacity:1;fill-rule:nonzero;stroke:none" d="M -3483.349 1386.795 C -3483.568 1386.795 -3483.788 1386.774 -3484.01 1386.731 C -3485.886 1386.368 -3487.114 1384.552 -3486.752 1382.678 C -3486.432 1381.023 -3484.981 1379.874 -3483.357 1379.874 C -3483.14 1379.874 -3482.918 1379.894 -3482.697 1379.936 C -3480.821 1380.299 -3479.593 1382.114 -3479.956 1383.991 C -3480.276 1385.644 -3481.725 1386.795 -3483.349 1386.795"/>
    <path id="path-115" style="fill-opacity: 1; fill-rule: nonzero; stroke: none; fill: rgba(0, 0, 0, 0.37);" d="M -3506.925 1303.626 C -3533.028 1303.626 -3554.265 1324.861 -3554.265 1350.966 C -3554.265 1377.068 -3533.028 1398.304 -3506.925 1398.304 C -3480.821 1398.304 -3459.585 1377.068 -3459.585 1350.966 C -3459.585 1324.861 -3480.821 1303.626 -3506.925 1303.626 Z M -3506.925 1399.362 C -3533.612 1399.362 -3555.322 1377.651 -3555.322 1350.966 C -3555.322 1324.279 -3533.612 1302.567 -3506.925 1302.567 C -3480.238 1302.567 -3458.528 1324.279 -3458.528 1350.966 C -3458.528 1377.651 -3480.238 1399.362 -3506.925 1399.362"/>
    <path id="path-116" style="fill:#f145ab;fill-opacity:1;fill-rule:nonzero;stroke:none" d="M -3534.447 1374.556 L -3534.447 1374.556 L -3526.639 1367.78 L -3526.074 1368.528 L -3534.447 1374.556"/>
    <path id="path-117" style="fill-opacity: 1; fill-rule: nonzero; stroke: none; fill: rgb(185, 14, 117);" d="M -3503.511 1358.248 L -3505.614 1359.836 L -3512.959 1350.109 L -3511.743 1349.19 L -3500.238 1340.503 L -3492.893 1350.233 L -3502.858 1357.755 L -3501.662 1358.908 L -3490.408 1350.411 L -3499.448 1338.438 L -3525.639 1358.212 L -3527.853 1369.284 L -3516.599 1370.187 L -3501.792 1359.007 C -3502.244 1358.891 -3502.852 1358.644 -3503.511 1358.248"/>
    <path id="path-118" style="fill:#f145ab;fill-opacity:1;fill-rule:nonzero;stroke:none" d="M -3507.157 1353.613 L -3511.743 1349.19 L -3512.959 1350.109 L -3505.614 1359.836 L -3503.511 1358.248 C -3504.91 1357.407 -3506.503 1355.904 -3507.157 1353.613"/>
    <path id="path-119" style="fill:#f145ab;fill-opacity:1;fill-rule:nonzero;stroke:none" d="M -3503.511 1358.248 C -3502.852 1358.644 -3502.244 1358.891 -3501.792 1359.007 L -3501.662 1358.908 L -3502.858 1357.755 L -3503.511 1358.248"/>
    <path id="path-120" style="fill:#f145ab;fill-opacity:1;fill-rule:nonzero;stroke:none" d="M -3507.324 1352.905 C -3508.088 1348.781 -3511.743 1349.19 -3511.743 1349.19 L -3507.157 1353.613 C -3507.222 1353.383 -3507.279 1353.147 -3507.324 1352.905"/>
    <path id="path-121" style="fill:#f145ab;fill-opacity:1;fill-rule:nonzero;stroke:none" d="M -3490.591 1351.725 L -3500.761 1338.255 C -3501.073 1337.842 -3500.991 1337.254 -3500.577 1336.942 C -3500.164 1336.63 -3499.576 1336.711 -3499.264 1337.126 L -3489.094 1350.594 C -3488.783 1351.009 -3488.864 1351.595 -3489.277 1351.909 C -3489.691 1352.221 -3490.278 1352.138 -3490.591 1351.725"/>
    <path id="path-122" style="fill:#f145ab;fill-opacity:1;fill-rule:nonzero;stroke:none" d="M -3480.114 1343.814 L -3490.285 1330.346 C -3490.596 1329.931 -3490.514 1329.345 -3490.101 1329.031 C -3489.687 1328.719 -3489.1 1328.801 -3488.788 1329.215 L -3478.617 1342.686 C -3478.306 1343.098 -3478.388 1343.687 -3478.801 1343.998 C -3479.214 1344.31 -3479.802 1344.229 -3480.114 1343.814"/>
    <path id="path-123" style="fill-opacity: 1; fill-rule: nonzero; stroke: none; fill: rgb(185, 14, 117);" d="M -3491.454 1345.914 L -3495.408 1340.677 L -3486.428 1333.897 L -3482.474 1339.134 L -3491.454 1345.914"/>
  </g>
  <g transform="matrix(0.808203, 0, 0, 0.808203, 3100.527654, -1067.055687)">
    <path id="path-124" style="fill:#fafdff;fill-opacity:1;fill-rule:nonzero;stroke:none" d="M -3549.516 1474.352 C -3577.061 1449.302 -3609.865 1429.945 -3646.084 1418.123 C -3636.425 1401.425 -3618.372 1390.19 -3597.693 1390.19 C -3566.84 1390.19 -3541.828 1415.202 -3541.828 1446.055 C -3541.828 1456.382 -3544.631 1466.054 -3549.516 1474.352"/>
    <path id="path-125" style="fill-opacity: 1; fill-rule: nonzero; stroke: none; fill: rgba(65, 166, 18, 0.09);" d="M -3597.693 1501.92 C -3628.545 1501.92 -3653.557 1476.908 -3653.557 1446.056 C -3653.557 1435.882 -3650.837 1426.342 -3646.084 1418.124 C -3609.865 1429.946 -3577.061 1449.303 -3549.516 1474.353 L -3549.516 1474.353 C -3558.025 1466.615 -3567.035 1459.423 -3576.495 1452.824 C -3569.097 1463.208 -3561.113 1472.667 -3553.807 1480.625 C -3564.036 1493.595 -3579.892 1501.92 -3597.693 1501.92"/>
    <path id="path-126" style="fill-opacity: 1; fill-rule: nonzero; stroke: none; fill: rgb(185, 14, 117);" d="M -3607.133 1437.529 L -3598.559 1459.678 L -3590.091 1425.803 L -3582.557 1450.622 L -3568.92 1450.622 C -3567.424 1447.237 -3566.521 1443.651 -3566.521 1439.926 C -3566.521 1429.019 -3574.563 1420.179 -3584.484 1420.179 C -3589.624 1420.179 -3594.257 1422.555 -3597.531 1426.361 C -3600.805 1422.555 -3605.437 1420.179 -3610.579 1420.179 C -3620.499 1420.179 -3628.932 1429.026 -3628.541 1439.926 C -3628.419 1443.347 -3627.516 1446.679 -3626.097 1449.865 L -3614.183 1449.865 L -3607.133 1437.529"/>
    <path id="path-127" style="fill-opacity: 1; fill-rule: nonzero; stroke: none; fill: rgb(185, 14, 117);" d="M -3589.844 1435.731 L -3598.015 1468.416 L -3607.595 1443.671 L -3612.647 1452.513 L -3624.784 1452.513 C -3616.517 1467.638 -3597.531 1478.795 -3597.531 1478.795 C -3597.531 1478.795 -3578.459 1468.327 -3570.228 1453.269 L -3584.52 1453.269 L -3589.844 1435.731"/>
  </g>
</svg>